font.ufo
<glyph name="arrowdblleft" format="1">
  <advance width="620"/>
  <unicode hex="21D0"/>
  <outline>
    <contour>
      <point x="298" y="-14" type="line"/>
      <point x="324" y="13" type="line"/>
      <point x="93" y="233" type="line"/>
      <point x="580" y="233" type="line"/>
      <point x="580" y="271" type="line"/>
      <point x="93" y="271" type="line"/>
      <point x="324" y="491" type="line"/>
      <point x="298" y="518" type="line"/>
      <point x="29" y="254" type="line"/>
      <point x="29" y="250" type="line"/>
    </contour>
  </outline>
</glyph>
<glyph name="arrowdblright" format="1">
  <advance width="620"/>
  <unicode hex="21D2"/>
  <outline>
    <contour>
      <point x="320" y="-14" type="line"/>
      <point x="589" y="250" type="line"/>
      <point x="589" y="254" type="line"/>
      <point x="320" y="518" type="line"/>
      <point x="294" y="491" type="line"/>
      <point x="524" y="271" type="line"/>
      <point x="38" y="271" type="line"/>
      <point x="38" y="233" type="line"/>
      <point x="524" y="233" type="line"/>
      <point x="294" y="13" type="line"/>
    </contour>
  </outline>
</glyph>
<glyph name="arrowdbldown" format="1">
  <advance width="620"/>
  <unicode hex="21D3"/>
  <outline>
    <contour>
      <point x="308" y="-24" type="line"/>
      <point x="312" y="-24" type="line"/>
      <point x="576" y="245" type="line"/>
      <point x="549" y="271" type="line"/>
      <point x="329" y="40" type="line"/>
      <point x="329" y="526" type="line"/>
      <point x="290" y="526" type="line"/>
      <point x="290" y="40" type="line"/>
      <point x="71" y="271" type="line"/>
      <point x="43" y="245" type="line"/>
    </contour>
  </outline>
</glyph>
<glyph name="Alpha" format="1">
  <advance width="526"/>
  <outline>
    <component base="A"/>
    <contour>
      <point x="263" y="679" type="move" name="aboveUC"/>
    </contour>
    <contour>
      <point x="263" y="-20" type="move" name="belowLC"/>
    </contour>
  </outline>
</glyph>
<glyph name="Alphalatin" format="1">
  <advance width="643"/>
  <outline>
    <contour>
      <point x="324" y="-12" type="curve" smooth="yes"/>
      <point x="411" y="-12"/>
      <point x="483" y="35"/>
      <point x="537" y="90" type="curve"/>
      <point x="540" y="90" type="line"/>
      <point x="540" y="74" type="line"/>
      <point x="542" y="13"/>
      <point x="563" y="-12"/>
      <point x="597" y="-12" type="curve" smooth="yes"/>
      <point x="612" y="-12"/>
      <point x="621" y="-9"/>
      <point x="631" y="-7" type="curve"/>
      <point x="623" y="33" type="line"/>
      <point x="617" y="31"/>
      <point x="609" y="30"/>
      <point x="605" y="30" type="curve" smooth="yes"/>
      <point x="593" y="30"/>
      <point x="583" y="41"/>
      <point x="583" y="64" type="curve" smooth="yes"/>
      <point x="583" y="648" type="line"/>
      <point x="543" y="648" type="line"/>
      <point x="540" y="593" type="line"/>
      <point x="537" y="593" type="line"/>
      <point x="475" y="642"/>
      <point x="421" y="671"/>
      <point x="344" y="671" type="curve" smooth="yes"/>
      <point x="189" y="671"/>
      <point x="55" y="538"/>
      <point x="55" y="328" type="curve" smooth="yes"/>
      <point x="55" y="109"/>
      <point x="160" y="-12"/>
    </contour>
    <contour>
      <point x="326" y="30" type="curve" smooth="yes"/>
      <point x="184" y="30"/>
      <point x="103" y="149"/>
      <point x="103" y="329" type="curve" smooth="yes"/>
      <point x="103" y="499"/>
      <point x="209" y="629"/>
      <point x="341" y="629" type="curve" smooth="yes"/>
      <point x="407" y="629"/>
      <point x="466" y="608"/>
      <point x="537" y="544" type="curve"/>
      <point x="537" y="142" type="line"/>
      <point x="466" y="69"/>
      <point x="399" y="30"/>
    </contour>
    <contour>
      <point x="333" y="681" type="move" name="aboveUC"/>
    </contour>
    <contour>
      <point x="333" y="0" type="move" name="ogonekUC"/>
    </contour>
    <contour>
      <point x="333" y="-22" type="move" name="belowLC"/>
    </contour>
  </outline>
</glyph>
<glyph name="Betalatin" format="1">
  <advance width="578"/>
  <outline>
    <contour>
      <point x="97" y="-188" type="line"/>
      <point x="136" y="-188" type="line"/>
      <point x="142" y="11" type="line"/>
      <point x="141" y="33" type="line"/>
      <point x="97" y="0" type="line"/>
    </contour>
    <component base="B"/>
  </outline>
</glyph>
<glyph name="Bhook.sc" format="1">
  <advance width="604"/>
  <outline>
    <contour>
      <point x="95" y="295" type="curve"/>
      <point x="115" y="324" type="line"/>
      <point x="94" y="339"/>
      <point x="85" y="362"/>
      <point x="85" y="394" type="curve" smooth="yes"/>
      <point x="85" y="451"/>
      <point x="124" y="476"/>
      <point x="183" y="476" type="curve" smooth="yes"/>
      <point x="293" y="476" type="line"/>
      <point x="301" y="512" type="line"/>
      <point x="189" y="512" type="line" smooth="yes"/>
      <point x="102" y="512"/>
      <point x="47" y="473"/>
      <point x="47" y="391" type="curve" smooth="yes"/>
      <point x="47" y="348"/>
      <point x="63" y="315"/>
    </contour>
    <component base="B.sc" xOffset="90"/>
    <contour>
      <point x="358" y="562" type="move" name="aboveUC"/>
    </contour>
    <contour>
      <point x="369" y="-22" type="move" name="belowLC"/>
    </contour>
  </outline>
</glyph>
<glyph name="Chilatin" format="1">
  <advance width="482"/>
  <outline>
    <contour>
      <point x="17" y="-188" type="line"/>
      <point x="64" y="-188" type="line"/>
      <point x="179" y="74" type="line" smooth="yes"/>
      <point x="197" y="115"/>
      <point x="214" y="156"/>
      <point x="235" y="207" type="curve"/>
      <point x="239" y="207" type="line"/>
      <point x="263" y="156"/>
      <point x="282" y="115"/>
      <point x="300" y="74" type="curve" smooth="yes"/>
      <point x="415" y="-188" type="line"/>
      <point x="465" y="-188" type="line"/>
      <point x="267" y="247" type="line"/>
      <point x="451" y="659" type="line"/>
      <point x="404" y="659" type="line"/>
      <point x="296" y="410" type="line" smooth="yes"/>
      <point x="278" y="371"/>
      <point x="266" y="341"/>
      <point x="247" y="294" type="curve"/>
      <point x="243" y="294" type="line"/>
      <point x="221" y="341"/>
      <point x="207" y="371"/>
      <point x="189" y="410" type="curve" smooth="yes"/>
      <point x="81" y="659" type="line"/>
      <point x="31" y="659" type="line"/>
      <point x="215" y="251" type="line"/>
    </contour>
  </outline>
</glyph>
<glyph name="Chook" format="1">
  <advance width="564"/>
  <outline>
    <contour>
      <point x="466" y="595" type="curve"/>
      <point x="508" y="592" type="line"/>
      <point x="479" y="635"/>
      <point x="474" y="661"/>
      <point x="474" y="700" type="curve" smooth="yes"/>
      <point x="474" y="729"/>
      <point x="493" y="757"/>
      <point x="530" y="757" type="curve" smooth="yes"/>
      <point x="545" y="757"/>
      <point x="556" y="751"/>
      <point x="566" y="747" type="curve"/>
      <point x="577" y="783" type="line"/>
      <point x="563" y="789"/>
      <point x="547" y="795"/>
      <point x="528" y="795" type="curve" smooth="yes"/>
      <point x="474" y="795"/>
      <point x="433" y="762"/>
      <point x="433" y="706" type="curve" smooth="yes"/>
      <point x="433" y="667"/>
      <point x="438" y="640"/>
    </contour>
    <component base="C"/>
  </outline>
</glyph>
<glyph name="Dhook" format="1">
  <advance width="735"/>
  <outline>
    <contour>
      <point x="380" y="659" type="line"/>
      <point x="228" y="659" type="line" smooth="yes"/>
      <point x="116" y="659"/>
      <point x="46" y="612"/>
      <point x="46" y="511" type="curve" smooth="yes"/>
      <point x="46" y="460"/>
      <point x="64" y="419"/>
      <point x="99" y="395" type="curve"/>
      <point x="122" y="426" type="line"/>
      <point x="98" y="445"/>
      <point x="86" y="473"/>
      <point x="86" y="508" type="curve" smooth="yes"/>
      <point x="86" y="589"/>
      <point x="140" y="621"/>
      <point x="221" y="621" type="curve" smooth="yes"/>
      <point x="372" y="621" type="line"/>
    </contour>
    <component base="D" xOffset="131"/>
    <contour>
      <point x="433" y="681" type="move" name="aboveUC"/>
    </contour>
    <contour>
      <point x="431" y="-22" type="move" name="belowLC"/>
    </contour>
  </outline>
</glyph>
<glyph name="Dhook.sc" format="1">
  <advance width="630"/>
  <outline>
    <contour>
      <point x="95" y="295" type="curve"/>
      <point x="116" y="324" type="line"/>
      <point x="94" y="339"/>
      <point x="85" y="362"/>
      <point x="85" y="393" type="curve" smooth="yes"/>
      <point x="85" y="450"/>
      <point x="126" y="475"/>
      <point x="184" y="475" type="curve" smooth="yes"/>
      <point x="293" y="475" type="line"/>
      <point x="301" y="512" type="line"/>
      <point x="189" y="512" type="line" smooth="yes"/>
      <point x="102" y="512"/>
      <point x="47" y="473"/>
      <point x="47" y="391" type="curve" smooth="yes"/>
      <point x="47" y="348"/>
      <point x="63" y="315"/>
    </contour>
    <component base="D.sc" xOffset="90"/>
    <contour>
      <point x="366" y="562" type="move" name="aboveUC"/>
    </contour>
    <contour>
      <point x="362" y="-22" type="move" name="belowLC"/>
    </contour>
  </outline>
</glyph>
<glyph name="E" format="1">
  <advance width="515"/>
  <outline>
    <contour>
      <point x="97" y="0" type="line"/>
      <point x="468" y="0" type="line"/>
      <point x="468" y="40" type="line"/>
      <point x="143" y="40" type="line"/>
      <point x="143" y="330" type="line"/>
      <point x="407" y="330" type="line"/>
      <point x="407" y="370" type="line"/>
      <point x="143" y="370" type="line"/>
      <point x="143" y="619" type="line"/>
      <point x="458" y="619" type="line"/>
      <point x="458" y="659" type="line"/>
      <point x="97" y="659" type="line"/>
    </contour>
    <contour>
      <point x="283" y="679" type="move" name="aboveUC"/>
    </contour>
    <contour>
      <point x="385" y="0" type="move" name="ogonekUC"/>
    </contour>
    <contour>
      <point x="261" y="0" type="move" name="baseLC"/>
    </contour>
    <contour>
      <point x="290" y="-20" type="move" name="belowLC"/>
    </contour>
  </outline>
</glyph>
<glyph name="Eopen" format="1">
  <advance width="548"/>
  <outline>
    <contour>
      <point x="271" y="-12" type="curve" smooth="yes"/>
      <point x="148" y="-12"/>
      <point x="46" y="62"/>
      <point x="46" y="183" type="curve" smooth="yes"/>
      <point x="46" y="279"/>
      <point x="107" y="337"/>
      <point x="189" y="351" type="curve"/>
      <point x="189" y="355" type="line"/>
      <point x="120" y="376"/>
      <point x="82" y="434"/>
      <point x="82" y="507" type="curve" smooth="yes"/>
      <point x="82" y="610"/>
      <point x="169" y="671"/>
      <point x="277" y="671" type="curve" smooth="yes"/>
      <point x="357" y="671"/>
      <point x="429" y="636"/>
      <point x="470" y="593" type="curve"/>
      <point x="443" y="562" type="line"/>
      <point x="404" y="602"/>
      <point x="343" y="629"/>
      <point x="277" y="629" type="curve" smooth="yes"/>
      <point x="192" y="629"/>
      <point x="127" y="585"/>
      <point x="127" y="505" type="curve" smooth="yes"/>
      <point x="127" y="415"/>
      <point x="186" y="369"/>
      <point x="323" y="369" type="curve" smooth="yes"/>
      <point x="370" y="369" type="line"/>
      <point x="370" y="331" type="line"/>
      <point x="303" y="331" type="line" smooth="yes"/>
      <point x="172" y="331"/>
      <point x="92" y="284"/>
      <point x="92" y="183" type="curve" smooth="yes"/>
      <point x="92" y="84"/>
      <point x="175" y="30"/>
      <point x="271" y="30" type="curve" smooth="yes"/>
      <point x="357" y="30"/>
      <point x="412" y="53"/>
      <point x="475" y="118" type="curve"/>
      <point x="504" y="87" type="line"/>
      <point x="439" y="18"/>
      <point x="371" y="-12"/>
    </contour>
    <contour>
      <point x="270" y="681" type="move" name="aboveUC"/>
    </contour>
    <contour>
      <point x="288" y="0" type="move" name="baseLC"/>
    </contour>
    <contour>
      <point x="288" y="-22" type="move" name="belowLC"/>
    </contour>
  </outline>
</glyph>
<glyph name="Eopen.sc" format="1">
  <advance width="478"/>
  <outline>
    <contour>
      <point x="234" y="-12" type="curve" smooth="yes"/>
      <point x="319" y="-12"/>
      <point x="375" y="12"/>
      <point x="431" y="64" type="curve"/>
      <point x="404" y="96" type="line"/>
      <point x="352" y="48"/>
      <point x="307" y="28"/>
      <point x="234" y="28" type="curve" smooth="yes"/>
      <point x="156" y="28"/>
      <point x="89" y="69"/>
      <point x="89" y="143" type="curve" smooth="yes"/>
      <point x="89" y="218"/>
      <point x="154" y="254"/>
      <point x="261" y="254" type="curve" smooth="yes"/>
      <point x="318" y="254" type="line"/>
      <point x="318" y="288" type="line"/>
      <point x="277" y="288" type="line" smooth="yes"/>
      <point x="165" y="288"/>
      <point x="118" y="322"/>
      <point x="118" y="388" type="curve" smooth="yes"/>
      <point x="118" y="447"/>
      <point x="171" y="484"/>
      <point x="241" y="484" type="curve" smooth="yes"/>
      <point x="294" y="484"/>
      <point x="345" y="463"/>
      <point x="378" y="431" type="curve"/>
      <point x="404" y="463" type="line"/>
      <point x="369" y="497"/>
      <point x="307" y="524"/>
      <point x="240" y="524" type="curve" smooth="yes"/>
      <point x="146" y="524"/>
      <point x="73" y="471"/>
      <point x="73" y="392" type="curve" smooth="yes"/>
      <point x="73" y="335"/>
      <point x="106" y="291"/>
      <point x="162" y="275" type="curve"/>
      <point x="162" y="271" type="line"/>
      <point x="94" y="260"/>
      <point x="44" y="216"/>
      <point x="44" y="143" type="curve" smooth="yes"/>
      <point x="44" y="48"/>
      <point x="129" y="-12"/>
    </contour>
    <contour>
      <point x="233" y="580" type="move" name="aboveUC"/>
    </contour>
    <contour>
      <point x="232" y="0" type="move" name="baseLC"/>
    </contour>
    <contour>
      <point x="232" y="-22" type="move" name="belowLC"/>
    </contour>
  </outline>
</glyph>
<glyph name="Eopen.sups" format="1">
  <advance width="355"/>
  <outline>
    <contour>
      <point x="178" y="398" type="curve" smooth="yes"/>
      <point x="243" y="398"/>
      <point x="289" y="417"/>
      <point x="333" y="462" type="curve"/>
      <point x="310" y="488" type="line"/>
      <point x="269" y="447"/>
      <point x="232" y="431"/>
      <point x="178" y="431" type="curve" smooth="yes"/>
      <point x="116" y="431"/>
      <point x="64" y="465"/>
      <point x="64" y="527" type="curve" smooth="yes"/>
      <point x="64" y="590"/>
      <point x="115" y="620"/>
      <point x="197" y="620" type="curve" smooth="yes"/>
      <point x="243" y="620" type="line"/>
      <point x="243" y="649" type="line"/>
      <point x="210" y="649" type="line" smooth="yes"/>
      <point x="123" y="649"/>
      <point x="87" y="679"/>
      <point x="87" y="734" type="curve" smooth="yes"/>
      <point x="87" y="784"/>
      <point x="128" y="811"/>
      <point x="182" y="811" type="curve" smooth="yes"/>
      <point x="225" y="811"/>
      <point x="263" y="795"/>
      <point x="289" y="769" type="curve"/>
      <point x="311" y="794" type="line"/>
      <point x="282" y="823"/>
      <point x="235" y="846"/>
      <point x="182" y="846" type="curve" smooth="yes"/>
      <point x="107" y="846"/>
      <point x="49" y="805"/>
      <point x="49" y="738" type="curve" smooth="yes"/>
      <point x="49" y="691"/>
      <point x="74" y="652"/>
      <point x="118" y="639" type="curve"/>
      <point x="118" y="636" type="line"/>
      <point x="65" y="626"/>
      <point x="26" y="588"/>
      <point x="26" y="527" type="curve" smooth="yes"/>
      <point x="26" y="446"/>
      <point x="94" y="398"/>
    </contour>
  </outline>
</glyph>
<glyph name="Epsilon" format="1">
  <advance width="515"/>
  <outline>
    <component base="E"/>
    <contour>
      <point x="283" y="679" type="move" name="aboveUC"/>
    </contour>
  </outline>
</glyph>
<glyph name="Epsilon.sc" format="1">
  <advance width="461"/>
  <outline>
    <component base="E.sc"/>
    <contour>
      <point x="262" y="560" type="move" name="aboveLC"/>
    </contour>
    <contour>
      <point x="265" y="-20" type="move" name="belowLC"/>
    </contour>
  </outline>
</glyph>
<glyph name="Eta" format="1">
  <advance width="639"/>
  <outline>
    <component base="H"/>
    <contour>
      <point x="318" y="679" type="move" name="aboveUC"/>
    </contour>
    <contour>
      <point x="318" y="-20" type="move" name="belowLC"/>
    </contour>
  </outline>
</glyph>
<glyph name="Eth" format="1">
  <advance width="625"/>
  <outline>
    <contour>
      <point x="37" y="332" type="line"/>
      <point x="327" y="332" type="line"/>
      <point x="327" y="365" type="line"/>
      <point x="120" y="365" type="line"/>
      <point x="37" y="363" type="line"/>
    </contour>
    <component base="D" xOffset="21"/>
    <contour>
      <point x="312" y="679" type="move" name="aboveUC"/>
    </contour>
    <contour>
      <point x="312" y="-20" type="move" name="belowLC"/>
    </contour>
  </outline>
</glyph>
<glyph name="Eturned" format="1">
  <advance width="515"/>
  <outline>
    <component base="E" xScale="-1.0" xOffset="515"/>
    <contour>
      <point x="236" y="681" type="move" name="aboveUC"/>
    </contour>
    <contour>
      <point x="253" y="-22" type="move" name="belowLC"/>
    </contour>
  </outline>
</glyph>
<glyph name="Ezh" format="1">
  <advance width="524"/>
  <outline>
    <contour>
      <point x="263" y="-12" type="curve" smooth="yes"/>
      <point x="382" y="-12"/>
      <point x="498" y="62"/>
      <point x="498" y="198" type="curve" smooth="yes"/>
      <point x="498" y="352"/>
      <point x="339" y="412"/>
      <point x="236" y="383" type="curve"/>
      <point x="467" y="637" type="line"/>
      <point x="467" y="659" type="line"/>
      <point x="84" y="659" type="line"/>
      <point x="84" y="622" type="line"/>
      <point x="397" y="622" type="line"/>
      <point x="163" y="366" type="line"/>
      <point x="186" y="335" type="line"/>
      <point x="210" y="346"/>
      <point x="227" y="354"/>
      <point x="257" y="354" type="curve" smooth="yes"/>
      <point x="357" y="354"/>
      <point x="452" y="303"/>
      <point x="452" y="196" type="curve" smooth="yes"/>
      <point x="452" y="93"/>
      <point x="367" y="26"/>
      <point x="263" y="26" type="curve" smooth="yes"/>
      <point x="165" y="26"/>
      <point x="104" y="78"/>
      <point x="72" y="115" type="curve"/>
      <point x="47" y="85" type="line"/>
      <point x="82" y="47"/>
      <point x="151" y="-12"/>
    </contour>
    <contour>
      <point x="278" y="682" type="move" name="aboveUC"/>
    </contour>
    <contour>
      <point x="282" y="-22" type="move" name="belowLC"/>
    </contour>
  </outline>
</glyph>
<glyph name="F" format="1">
  <advance width="477"/>
  <outline>
    <contour>
      <point x="97" y="0" type="line"/>
      <point x="143" y="0" type="line"/>
      <point x="143" y="317" type="line"/>
      <point x="408" y="317" type="line"/>
      <point x="408" y="357" type="line"/>
      <point x="143" y="357" type="line"/>
      <point x="143" y="619" type="line"/>
      <point x="456" y="619" type="line"/>
      <point x="456" y="659" type="line"/>
      <point x="97" y="659" type="line"/>
    </contour>
    <contour>
      <point x="285" y="679" type="move" name="aboveUC"/>
    </contour>
    <contour>
      <point x="228" y="0" type="move" name="baseLC"/>
    </contour>
    <contour>
      <point x="121" y="-20" type="move" name="belowLC"/>
    </contour>
  </outline>
</glyph>
<glyph name="Fhook.alt" format="1">
  <advance width="477"/>
  <outline>
    <contour>
      <point x="34" y="-156" type="curve" smooth="yes"/>
      <point x="107" y="-156"/>
      <point x="143" y="-110"/>
      <point x="143" y="-15" type="curve" smooth="yes"/>
      <point x="143" y="317" type="line"/>
      <point x="408" y="317" type="line"/>
      <point x="408" y="357" type="line"/>
      <point x="143" y="357" type="line"/>
      <point x="143" y="619" type="line"/>
      <point x="456" y="619" type="line"/>
      <point x="456" y="659" type="line"/>
      <point x="97" y="659" type="line"/>
      <point x="97" y="0" type="line" smooth="yes"/>
      <point x="97" y="-71"/>
      <point x="87" y="-113"/>
      <point x="33" y="-113" type="curve" smooth="yes"/>
      <point x="14" y="-113"/>
      <point x="-5" y="-108"/>
      <point x="-18" y="-104" type="curve"/>
      <point x="-28" y="-143" type="line"/>
      <point x="-13" y="-150"/>
      <point x="11" y="-156"/>
    </contour>
  </outline>
</glyph>
<glyph name="Fhook" format="1">
  <advance width="554"/>
  <outline>
    <contour>
      <point x="221" y="346" type="line" smooth="yes"/>
      <point x="221" y="75"/>
      <point x="151" y="-12"/>
      <point x="64" y="-12" type="curve" smooth="yes"/>
      <point x="41" y="-12"/>
      <point x="10" y="-8"/>
      <point x="-8" y="1" type="curve"/>
      <point x="6" y="44" type="line"/>
      <point x="22" y="37"/>
      <point x="37" y="33"/>
      <point x="61" y="33" type="curve" smooth="yes"/>
      <point x="123" y="33"/>
      <point x="175" y="106"/>
      <point x="175" y="337" type="curve" smooth="yes"/>
      <point x="175" y="659" type="line"/>
      <point x="534" y="659" type="line"/>
      <point x="534" y="619" type="line"/>
      <point x="221" y="619" type="line"/>
    </contour>
    <contour>
      <point x="77" y="357" type="line"/>
      <point x="486" y="357" type="line"/>
      <point x="486" y="317" type="line"/>
      <point x="77" y="317" type="line"/>
    </contour>
  </outline>
</glyph>
<glyph name="Gammalatin" format="1">
  <advance width="491"/>
  <outline>
    <contour>
      <point x="222" y="212" type="line"/>
      <point x="271" y="212" type="line"/>
      <point x="487" y="659" type="line"/>
      <point x="440" y="659" type="line"/>
      <point x="318" y="406" type="line" smooth="yes"/>
      <point x="293" y="354"/>
      <point x="276" y="314"/>
      <point x="249" y="262" type="curve"/>
      <point x="245" y="262" type="line"/>
      <point x="218" y="314"/>
      <point x="200" y="354"/>
      <point x="175" y="406" type="curve" smooth="yes"/>
      <point x="53" y="659" type="line"/>
      <point x="4" y="659" type="line"/>
    </contour>
    <contour>
      <point x="246" y="-12" type="curve" smooth="yes"/>
      <point x="309" y="-12"/>
      <point x="340" y="25"/>
      <point x="340" y="76" type="curve" smooth="yes"/>
      <point x="340" y="118"/>
      <point x="313" y="162"/>
      <point x="273" y="233" type="curve"/>
      <point x="218" y="233" type="line"/>
      <point x="180" y="162"/>
      <point x="153" y="118"/>
      <point x="153" y="76" type="curve" smooth="yes"/>
      <point x="153" y="25"/>
      <point x="184" y="-12"/>
    </contour>
    <contour>
      <point x="246" y="30" type="curve" smooth="yes"/>
      <point x="212" y="30"/>
      <point x="198" y="52"/>
      <point x="198" y="79" type="curve" smooth="yes"/>
      <point x="198" y="109"/>
      <point x="218" y="154"/>
      <point x="244" y="192" type="curve"/>
      <point x="248" y="192" type="line"/>
      <point x="275" y="154"/>
      <point x="295" y="112"/>
      <point x="295" y="79" type="curve" smooth="yes"/>
      <point x="295" y="52"/>
      <point x="281" y="30"/>
    </contour>
    <contour>
      <point x="245" y="681" type="move" name="aboveUC"/>
    </contour>
    <contour>
      <point x="248" y="-22" type="move" name="belowLC"/>
    </contour>
  </outline>
</glyph>
<glyph name="Glottalstoplatin" format="1">
  <advance width="403"/>
  <outline>
    <contour>
      <point x="158" y="0" type="line"/>
      <point x="202" y="0" type="line"/>
      <point x="202" y="242" type="line"/>
      <point x="325" y="301"/>
      <point x="399" y="364"/>
      <point x="399" y="486" type="curve" smooth="yes"/>
      <point x="399" y="607"/>
      <point x="310" y="671"/>
      <point x="189" y="671" type="curve" smooth="yes"/>
      <point x="83" y="671"/>
      <point x="28" y="620"/>
      <point x="-17" y="575" type="curve"/>
      <point x="9" y="544" type="line"/>
      <point x="51" y="588"/>
      <point x="97" y="632"/>
      <point x="189" y="632" type="curve" smooth="yes"/>
      <point x="297" y="632"/>
      <point x="353" y="574"/>
      <point x="353" y="487" type="curve" smooth="yes"/>
      <point x="353" y="386"/>
      <point x="298" y="327"/>
      <point x="158" y="268" type="curve"/>
    </contour>
  </outline>
</glyph>
<glyph name="H" format="1">
  <advance width="639"/>
  <outline>
    <contour>
      <point x="97" y="0" type="line"/>
      <point x="143" y="0" type="line"/>
      <point x="143" y="330" type="line"/>
      <point x="496" y="330" type="line"/>
      <point x="496" y="0" type="line"/>
      <point x="542" y="0" type="line"/>
      <point x="542" y="659" type="line"/>
      <point x="496" y="659" type="line"/>
      <point x="496" y="370" type="line"/>
      <point x="143" y="370" type="line"/>
      <point x="143" y="659" type="line"/>
      <point x="97" y="659" type="line"/>
    </contour>
    <contour>
      <point x="318" y="679" type="move" name="aboveUC"/>
    </contour>
    <contour>
      <point x="301" y="0" type="move" name="baseLC"/>
    </contour>
    <contour>
      <point x="318" y="-20" type="move" name="belowLC"/>
    </contour>
  </outline>
</glyph>
<glyph name="Heng" format="1">
  <advance width="639"/>
  <outline>
    <contour>
      <point x="542" y="659" type="line"/>
      <point x="496" y="659" type="line"/>
      <point x="496" y="370" type="line"/>
      <point x="143" y="370" type="line"/>
      <point x="143" y="659" type="line"/>
      <point x="97" y="659" type="line"/>
      <point x="97" y="0" type="line"/>
      <point x="143" y="0" type="line"/>
      <point x="143" y="330" type="line"/>
      <point x="496" y="330" type="line"/>
      <point x="496" y="0" type="line" smooth="yes"/>
      <point x="496" y="-71"/>
      <point x="485" y="-113"/>
      <point x="431" y="-113" type="curve" smooth="yes"/>
      <point x="412" y="-113"/>
      <point x="393" y="-108"/>
      <point x="381" y="-104" type="curve"/>
      <point x="371" y="-143" type="line"/>
      <point x="385" y="-150"/>
      <point x="410" y="-156"/>
      <point x="432" y="-156" type="curve" smooth="yes"/>
      <point x="506" y="-156"/>
      <point x="542" y="-110"/>
      <point x="542" y="-15" type="curve" smooth="yes"/>
    </contour>
    <contour>
      <point x="318" y="681" type="move" name="aboveUC"/>
    </contour>
    <contour>
      <point x="318" y="-22" type="move" name="belowLC"/>
    </contour>
  </outline>
</glyph>
<glyph name="I.a" format="1">
  <advance width="312"/>
  <outline>
    <contour>
      <point x="43" y="0" type="line"/>
      <point x="268" y="0" type="line"/>
      <point x="268" y="40" type="line"/>
      <point x="179" y="40" type="line"/>
      <point x="179" y="619" type="line"/>
      <point x="268" y="619" type="line"/>
      <point x="268" y="659" type="line"/>
      <point x="43" y="659" type="line"/>
      <point x="43" y="619" type="line"/>
      <point x="133" y="619" type="line"/>
      <point x="133" y="40" type="line"/>
      <point x="43" y="40" type="line"/>
    </contour>
    <contour>
      <point x="156" y="679" type="move" name="aboveUC"/>
    </contour>
    <contour>
      <point x="131" y="0" type="move" name="ogonekUC"/>
    </contour>
    <contour>
      <point x="158" y="-20" type="move" name="belowLC"/>
    </contour>
  </outline>
</glyph>
<glyph name="Iota" format="1">
  <advance width="240"/>
  <outline>
    <component base="I"/>
    <contour>
      <point x="120" y="679" type="move" name="aboveUC"/>
    </contour>
  </outline>
</glyph>
<glyph name="Iotalatin" format="1">
  <advance width="309"/>
  <outline>
    <contour>
      <point x="242" y="-12" type="curve" smooth="yes"/>
      <point x="263" y="-12"/>
      <point x="291" y="-8"/>
      <point x="307" y="1" type="curve"/>
      <point x="295" y="44" type="line"/>
      <point x="281" y="37"/>
      <point x="266" y="33"/>
      <point x="246" y="33" type="curve" smooth="yes"/>
      <point x="181" y="33"/>
      <point x="143" y="91"/>
      <point x="143" y="285" type="curve" smooth="yes"/>
      <point x="143" y="659" type="line"/>
      <point x="97" y="659" type="line"/>
      <point x="97" y="293" type="line" smooth="yes"/>
      <point x="97" y="64"/>
      <point x="149" y="-12"/>
    </contour>
  </outline>
</glyph>
<glyph name="Istroke" format="1">
  <advance width="268"/>
  <outline>
    <contour>
      <point x="33" y="330" type="line"/>
      <point x="235" y="330" type="line"/>
      <point x="235" y="363" type="line"/>
      <point x="112" y="363" type="line"/>
      <point x="33" y="361" type="line"/>
    </contour>
    <component base="I" xOffset="14"/>
  </outline>
</glyph>
<glyph name="Jcrossedtail" format="1">
  <advance width="429"/>
  <outline>
    <contour>
      <point x="359" y="-20" type="curve"/>
      <point x="391" y="3" type="line"/>
      <point x="319" y="121"/>
      <point x="258" y="201"/>
      <point x="162" y="201" type="curve" smooth="yes"/>
      <point x="77" y="201"/>
      <point x="31" y="155"/>
      <point x="31" y="99" type="curve" smooth="yes"/>
      <point x="31" y="43"/>
      <point x="82" y="-12"/>
      <point x="166" y="-12" type="curve" smooth="yes"/>
      <point x="278" y="-12"/>
      <point x="332" y="75"/>
      <point x="332" y="209" type="curve" smooth="yes"/>
      <point x="332" y="659" type="line"/>
      <point x="286" y="659" type="line"/>
      <point x="286" y="216" type="line" smooth="yes"/>
      <point x="286" y="131"/>
      <point x="264" y="30"/>
      <point x="167" y="30" type="curve" smooth="yes"/>
      <point x="113" y="30"/>
      <point x="77" y="59"/>
      <point x="77" y="97" type="curve" smooth="yes"/>
      <point x="77" y="132"/>
      <point x="102" y="161"/>
      <point x="160" y="161" type="curve" smooth="yes"/>
      <point x="241" y="161"/>
      <point x="292" y="90"/>
    </contour>
    <contour>
      <point x="305" y="681" type="move" name="aboveUC"/>
    </contour>
    <contour>
      <point x="208" y="-22" type="move" name="belowLC"/>
    </contour>
  </outline>
</glyph>
<glyph name="Kappa.sc" format="1">
  <advance width="491"/>
  <outline>
    <component base="K.sc"/>
    <contour>
      <point x="281" y="560" type="move" name="aboveLC"/>
    </contour>
    <contour>
      <point x="288" y="-20" type="move" name="belowLC"/>
    </contour>
  </outline>
</glyph>
<glyph name="Khook" format="1">
  <advance width="558"/>
  <outline>
    <contour>
      <point x="476" y="607" type="line" smooth="yes"/>
      <point x="490" y="624"/>
      <point x="504" y="629"/>
      <point x="518" y="629" type="curve" smooth="yes"/>
      <point x="545" y="629"/>
      <point x="559" y="613"/>
      <point x="573" y="597" type="curve"/>
      <point x="601" y="623" type="line"/>
      <point x="581" y="648"/>
      <point x="554" y="671"/>
      <point x="513" y="671" type="curve" smooth="yes"/>
      <point x="490" y="671"/>
      <point x="471" y="667"/>
      <point x="437" y="627" type="curve" smooth="yes"/>
      <point x="145" y="293" type="line"/>
      <point x="143" y="293" type="line"/>
      <point x="143" y="659" type="line"/>
      <point x="97" y="659" type="line"/>
      <point x="97" y="0" type="line"/>
      <point x="143" y="0" type="line"/>
      <point x="143" y="227" type="line"/>
      <point x="277" y="380" type="line"/>
      <point x="495" y="0" type="line"/>
      <point x="548" y="0" type="line"/>
      <point x="309" y="415" type="line"/>
    </contour>
  </outline>
</glyph>
<glyph name="Kturned" format="1">
  <advance width="558"/>
  <outline>
    <component base="K" xScale="-1.0" xOffset="558"/>
    <contour>
      <point x="245" y="612" type="move" name="aboveUC"/>
    </contour>
    <contour>
      <point x="265" y="47" type="move" name="belowLC"/>
    </contour>
  </outline>
</glyph>
<glyph name="L.sc" format="1">
  <advance width="417"/>
  <outline>
    <contour>
      <point x="97" y="0" type="line"/>
      <point x="395" y="0" type="line"/>
      <point x="395" y="39" type="line"/>
      <point x="143" y="39" type="line"/>
      <point x="143" y="512" type="line"/>
      <point x="97" y="512" type="line"/>
    </contour>
    <contour>
      <point x="126" y="560" type="move" name="aboveUC"/>
    </contour>
    <contour>
      <point x="124" y="255" type="move" name="center"/>
    </contour>
    <contour>
      <point x="257" y="-20" type="move" name="belowLC"/>
    </contour>
  </outline>
</glyph>
<glyph name="Lbelt" format="1">
  <advance width="493"/>
  <outline>
    <contour>
      <point x="112" y="280" type="curve" smooth="yes"/>
      <point x="257" y="280" type="line"/>
      <point x="257" y="313" type="line"/>
      <point x="105" y="313" type="line" smooth="yes"/>
      <point x="56" y="313"/>
      <point x="35" y="333"/>
      <point x="35" y="356" type="curve" smooth="yes"/>
      <point x="35" y="376"/>
      <point x="45" y="393"/>
      <point x="72" y="393" type="curve" smooth="yes"/>
      <point x="111" y="393"/>
      <point x="123" y="356"/>
      <point x="123" y="322" type="curve"/>
      <point x="147" y="313" type="line"/>
      <point x="147" y="349"/>
      <point x="139" y="426"/>
      <point x="67" y="426" type="curve" smooth="yes"/>
      <point x="25" y="426"/>
      <point x="-3" y="396"/>
      <point x="-3" y="358" type="curve" smooth="yes"/>
      <point x="-3" y="313"/>
      <point x="34" y="280"/>
    </contour>
    <contour>
      <point x="123" y="0" type="line"/>
      <point x="473" y="0" type="line"/>
      <point x="473" y="40" type="line"/>
      <point x="169" y="40" type="line"/>
      <point x="169" y="659" type="line"/>
      <point x="123" y="659" type="line"/>
    </contour>
    <contour>
      <point x="146" y="681" type="move" name="aboveUC"/>
    </contour>
    <contour>
      <point x="314" y="-22" type="move" name="belowLC"/>
    </contour>
  </outline>
</glyph>
<glyph name="Lmiddletilde" format="1">
  <advance width="467"/>
  <outline>
    <component base="L"/>
    <component base="tildeoverlaycmb" xOffset="223" yOffset="-206"/>
    <contour>
      <point x="121" y="679" type="move" name="aboveUC"/>
    </contour>
    <contour>
      <point x="288" y="-20" type="move" name="belowLC"/>
    </contour>
  </outline>
</glyph>
<glyph name="Nhookleft.alt" format="1">
  <advance width="636"/>
  <outline>
    <contour>
      <point x="34" y="-156" type="curve" smooth="yes"/>
      <point x="107" y="-156"/>
      <point x="141" y="-110"/>
      <point x="141" y="-15" type="curve" smooth="yes"/>
      <point x="141" y="409" type="line" smooth="yes"/>
      <point x="141" y="473"/>
      <point x="137" y="533"/>
      <point x="135" y="596" type="curve"/>
      <point x="139" y="596" type="line"/>
      <point x="213" y="465" type="line"/>
      <point x="491" y="0" type="line"/>
      <point x="539" y="0" type="line"/>
      <point x="539" y="659" type="line"/>
      <point x="495" y="659" type="line"/>
      <point x="495" y="255" type="line" smooth="yes"/>
      <point x="495" y="191"/>
      <point x="499" y="127"/>
      <point x="501" y="63" type="curve"/>
      <point x="497" y="63" type="line"/>
      <point x="423" y="194" type="line"/>
      <point x="145" y="659" type="line"/>
      <point x="97" y="659" type="line"/>
      <point x="97" y="0" type="line" smooth="yes"/>
      <point x="97" y="-71"/>
      <point x="87" y="-113"/>
      <point x="33" y="-113" type="curve" smooth="yes"/>
      <point x="14" y="-113"/>
      <point x="-5" y="-108"/>
      <point x="-18" y="-104" type="curve"/>
      <point x="-28" y="-143" type="line"/>
      <point x="-13" y="-150"/>
      <point x="11" y="-156"/>
    </contour>
    <contour>
      <point x="323" y="681" type="move" name="aboveUC"/>
    </contour>
  </outline>
</glyph>
<glyph name="Nhookleft" format="1">
  <advance width="695"/>
  <outline>
    <contour>
      <point x="64" y="-12" type="curve" smooth="yes"/>
      <point x="153" y="-12"/>
      <point x="221" y="77"/>
      <point x="221" y="341" type="curve" smooth="yes"/>
      <point x="221" y="523" type="line"/>
      <point x="265" y="580"/>
      <point x="344" y="629"/>
      <point x="403" y="629" type="curve" smooth="yes"/>
      <point x="515" y="629"/>
      <point x="590" y="562"/>
      <point x="590" y="340" type="curve" smooth="yes"/>
      <point x="590" y="0" type="line"/>
      <point x="637" y="0" type="line"/>
      <point x="637" y="343" type="line" smooth="yes"/>
      <point x="637" y="581"/>
      <point x="546" y="671"/>
      <point x="411" y="671" type="curve" smooth="yes"/>
      <point x="339" y="671"/>
      <point x="267" y="624"/>
      <point x="220" y="571" type="curve"/>
      <point x="220" y="659" type="line"/>
      <point x="175" y="659" type="line"/>
      <point x="175" y="335" type="line" smooth="yes"/>
      <point x="175" y="106"/>
      <point x="123" y="33"/>
      <point x="61" y="33" type="curve" smooth="yes"/>
      <point x="37" y="33"/>
      <point x="22" y="37"/>
      <point x="6" y="44" type="curve"/>
      <point x="-8" y="1" type="line"/>
      <point x="10" y="-8"/>
      <point x="41" y="-12"/>
    </contour>
    <contour>
      <point x="413" y="681" type="move" name="aboveUC"/>
    </contour>
  </outline>
</glyph>
<glyph name="Nlegrightlong" format="1">
  <advance width="635"/>
  <outline>
    <contour>
      <point x="498" y="-188" type="line"/>
      <point x="542" y="-188" type="line"/>
      <point x="542" y="337" type="line" smooth="yes"/>
      <point x="542" y="583"/>
      <point x="464" y="671"/>
      <point x="333" y="671" type="curve" smooth="yes"/>
      <point x="261" y="671"/>
      <point x="189" y="624"/>
      <point x="143" y="571" type="curve"/>
      <point x="143" y="659" type="line"/>
      <point x="97" y="659" type="line"/>
      <point x="97" y="0" type="line"/>
      <point x="143" y="0" type="line"/>
      <point x="143" y="523" type="line"/>
      <point x="187" y="580"/>
      <point x="266" y="629"/>
      <point x="326" y="629" type="curve" smooth="yes"/>
      <point x="436" y="629"/>
      <point x="498" y="563"/>
      <point x="498" y="337" type="curve" smooth="yes"/>
    </contour>
    <contour>
      <point x="335" y="681" type="move" name="aboveUC"/>
    </contour>
  </outline>
</glyph>
<glyph name="Ohorn.sc" format="1">
  <advance width="574"/>
  <outline>
    <component base="O.sc"/>
    <component base="horncmb" xOffset="395" yOffset="32"/>
    <contour>
      <point x="287" y="560" type="move" name="aboveUC"/>
    </contour>
    <contour>
      <point x="287" y="-20" type="move" name="belowLC"/>
    </contour>
  </outline>
</glyph>
<glyph name="Omegalatin" format="1">
  <advance width="848"/>
  <outline>
    <contour>
      <point x="259" y="-12" type="curve" smooth="yes"/>
      <point x="328" y="-12"/>
      <point x="393" y="25"/>
      <point x="423" y="102" type="curve"/>
      <point x="429" y="102" type="line"/>
      <point x="459" y="25"/>
      <point x="521" y="-12"/>
      <point x="590" y="-12" type="curve" smooth="yes"/>
      <point x="705" y="-12"/>
      <point x="790" y="83"/>
      <point x="790" y="295" type="curve" smooth="yes"/>
      <point x="790" y="455"/>
      <point x="741" y="555"/>
      <point x="666" y="663" type="curve"/>
      <point x="627" y="639" type="line"/>
      <point x="704" y="528"/>
      <point x="742" y="447"/>
      <point x="742" y="293" type="curve" smooth="yes"/>
      <point x="742" y="110"/>
      <point x="676" y="30"/>
      <point x="588" y="30" type="curve" smooth="yes"/>
      <point x="520" y="30"/>
      <point x="448" y="72"/>
      <point x="448" y="221" type="curve" smooth="yes"/>
      <point x="449" y="399" type="line"/>
      <point x="406" y="399" type="line"/>
      <point x="406" y="222" type="line" smooth="yes"/>
      <point x="406" y="74"/>
      <point x="335" y="30"/>
      <point x="265" y="30" type="curve" smooth="yes"/>
      <point x="180" y="30"/>
      <point x="106" y="117"/>
      <point x="106" y="283" type="curve" smooth="yes"/>
      <point x="106" y="442"/>
      <point x="150" y="532"/>
      <point x="224" y="636" type="curve"/>
      <point x="186" y="663" type="line"/>
      <point x="115" y="559"/>
      <point x="58" y="447"/>
      <point x="58" y="292" type="curve" smooth="yes"/>
      <point x="58" y="86"/>
      <point x="151" y="-12"/>
    </contour>
    <contour>
      <point x="424" y="681" type="move" name="aboveUC"/>
    </contour>
    <contour>
      <point x="424" y="-22" type="move" name="belowLC"/>
    </contour>
  </outline>
</glyph>
<glyph name="Omicron" format="1">
  <advance width="652"/>
  <outline>
    <component base="O"/>
    <contour>
      <point x="326" y="679" type="move" name="aboveUC"/>
    </contour>
  </outline>
</glyph>
<glyph name="Oopen" format="1">
  <advance width="564"/>
  <outline>
    <contour>
      <point x="245" y="-12" type="curve" smooth="yes"/>
      <point x="394" y="-12"/>
      <point x="510" y="113"/>
      <point x="510" y="331" type="curve" smooth="yes"/>
      <point x="510" y="549"/>
      <point x="398" y="671"/>
      <point x="244" y="671" type="curve" smooth="yes"/>
      <point x="165" y="671"/>
      <point x="94" y="633"/>
      <point x="57" y="592" type="curve"/>
      <point x="84" y="561" type="line"/>
      <point x="122" y="602"/>
      <point x="181" y="629"/>
      <point x="243" y="629" type="curve" smooth="yes"/>
      <point x="373" y="629"/>
      <point x="461" y="520"/>
      <point x="461" y="337" type="curve" smooth="yes"/>
      <point x="461" y="139"/>
      <point x="367" y="30"/>
      <point x="243" y="30" type="curve" smooth="yes"/>
      <point x="169" y="30"/>
      <point x="115" y="58"/>
      <point x="65" y="111" type="curve"/>
      <point x="38" y="82" type="line"/>
      <point x="91" y="24"/>
      <point x="154" y="-12"/>
    </contour>
    <contour>
      <point x="260" y="681" type="move" name="aboveUC"/>
    </contour>
    <contour>
      <point x="241" y="0" type="move" name="baseLC"/>
    </contour>
    <contour>
      <point x="241" y="-22" type="move" name="belowLC"/>
    </contour>
  </outline>
</glyph>
<glyph name="Oopen.sc" format="1">
  <advance width="494"/>
  <outline>
    <contour>
      <point x="204" y="-12" type="curve" smooth="yes"/>
      <point x="342" y="-12"/>
      <point x="439" y="90"/>
      <point x="439" y="257" type="curve" smooth="yes"/>
      <point x="439" y="421"/>
      <point x="341" y="524"/>
      <point x="198" y="524" type="curve" smooth="yes"/>
      <point x="133" y="524"/>
      <point x="84" y="494"/>
      <point x="53" y="461" type="curve"/>
      <point x="80" y="431" type="line"/>
      <point x="110" y="462"/>
      <point x="148" y="483"/>
      <point x="198" y="483" type="curve" smooth="yes"/>
      <point x="318" y="483"/>
      <point x="391" y="396"/>
      <point x="391" y="257" type="curve" smooth="yes"/>
      <point x="391" y="116"/>
      <point x="319" y="29"/>
      <point x="202" y="29" type="curve" smooth="yes"/>
      <point x="145" y="29"/>
      <point x="103" y="49"/>
      <point x="65" y="90" type="curve"/>
      <point x="38" y="62" type="line"/>
      <point x="82" y="14"/>
      <point x="132" y="-12"/>
    </contour>
    <contour>
      <point x="211" y="580" type="move" name="aboveUC"/>
    </contour>
    <contour>
      <point x="212" y="0" type="move" name="baseLC"/>
    </contour>
    <contour>
      <point x="212" y="-22" type="move" name="belowLC"/>
    </contour>
  </outline>
</glyph>
<glyph name="Oopen.sups" format="1">
  <advance width="372"/>
  <outline>
    <contour>
      <point x="152" y="398" type="curve" smooth="yes"/>
      <point x="260" y="398"/>
      <point x="338" y="483"/>
      <point x="338" y="622" type="curve" smooth="yes"/>
      <point x="338" y="759"/>
      <point x="260" y="846"/>
      <point x="148" y="846" type="curve" smooth="yes"/>
      <point x="97" y="846"/>
      <point x="57" y="822"/>
      <point x="32" y="794" type="curve"/>
      <point x="55" y="770" type="line"/>
      <point x="79" y="796"/>
      <point x="109" y="813"/>
      <point x="147" y="813" type="curve" smooth="yes"/>
      <point x="240" y="813"/>
      <point x="298" y="738"/>
      <point x="298" y="624" type="curve" smooth="yes"/>
      <point x="298" y="506"/>
      <point x="241" y="431"/>
      <point x="150" y="431" type="curve" smooth="yes"/>
      <point x="106" y="431"/>
      <point x="73" y="450"/>
      <point x="44" y="483" type="curve"/>
      <point x="22" y="459" type="line"/>
      <point x="54" y="422"/>
      <point x="96" y="398"/>
    </contour>
  </outline>
</glyph>
<glyph name="Oslash" format="1">
  <advance width="652"/>
  <outline>
    <contour>
      <point x="84" y="-23" type="line"/>
      <point x="595" y="660" type="line"/>
      <point x="566" y="682" type="line"/>
      <point x="56" y="-1" type="line"/>
    </contour>
    <component base="O" xOffset="4"/>
    <contour>
      <point x="330" y="679" type="move" name="aboveUC"/>
    </contour>
    <contour>
      <point x="326" y="0" type="move" name="baseLC"/>
    </contour>
  </outline>
</glyph>
<glyph name="Phook" format="1">
  <advance width="679"/>
  <outline>
    <contour>
      <point x="394" y="659" type="line"/>
      <point x="228" y="659" type="line" smooth="yes"/>
      <point x="116" y="659"/>
      <point x="46" y="612"/>
      <point x="46" y="511" type="curve" smooth="yes"/>
      <point x="46" y="460"/>
      <point x="64" y="419"/>
      <point x="99" y="395" type="curve"/>
      <point x="122" y="426" type="line"/>
      <point x="98" y="445"/>
      <point x="86" y="473"/>
      <point x="86" y="508" type="curve" smooth="yes"/>
      <point x="86" y="589"/>
      <point x="140" y="621"/>
      <point x="221" y="621" type="curve" smooth="yes"/>
      <point x="374" y="621" type="line"/>
    </contour>
    <component base="P" xOffset="131"/>
    <contour>
      <point x="426" y="681" type="move" name="aboveUC"/>
    </contour>
    <contour>
      <point x="254" y="-22" type="move" name="belowLC"/>
    </contour>
  </outline>
</glyph>
<glyph name="Rstroke" format="1">
  <advance width="558"/>
  <outline>
    <contour>
      <point x="33" y="308" type="line"/>
      <point x="323" y="308" type="line"/>
      <point x="323" y="341" type="line"/>
      <point x="112" y="341" type="line"/>
      <point x="33" y="339" type="line"/>
    </contour>
    <component base="R" xOffset="15"/>
  </outline>
</glyph>
<glyph name="Rtail.alt" format="1">
  <advance width="544"/>
  <outline>
    <contour>
      <point x="97" y="3" type="line"/>
      <point x="143" y="0" type="line"/>
      <point x="143" y="303" type="line"/>
      <point x="286" y="303" type="line" smooth="yes"/>
      <point x="417" y="303"/>
      <point x="502" y="365"/>
      <point x="502" y="485" type="curve" smooth="yes"/>
      <point x="502" y="611"/>
      <point x="417" y="659"/>
      <point x="286" y="659" type="curve" smooth="yes"/>
      <point x="97" y="659" type="line"/>
    </contour>
    <contour>
      <point x="143" y="341" type="line"/>
      <point x="143" y="620" type="line"/>
      <point x="274" y="620" type="line" smooth="yes"/>
      <point x="390" y="620"/>
      <point x="455" y="584"/>
      <point x="455" y="485" type="curve" smooth="yes"/>
      <point x="455" y="388"/>
      <point x="390" y="341"/>
      <point x="274" y="341" type="curve" smooth="yes"/>
    </contour>
    <contour>
      <point x="462" y="0" type="line"/>
      <point x="515" y="0" type="line"/>
      <point x="319" y="329" type="line"/>
      <point x="275" y="316" type="line"/>
    </contour>
    <contour>
      <point x="143" y="633" type="line"/>
      <point x="97" y="659" type="line"/>
      <point x="97" y="-15" type="line" smooth="yes"/>
      <point x="97" y="-110"/>
      <point x="133" y="-156"/>
      <point x="207" y="-156" type="curve" smooth="yes"/>
      <point x="229" y="-156"/>
      <point x="253" y="-150"/>
      <point x="268" y="-143" type="curve"/>
      <point x="258" y="-104" type="line"/>
      <point x="246" y="-108"/>
      <point x="227" y="-113"/>
      <point x="208" y="-113" type="curve" smooth="yes"/>
      <point x="154" y="-113"/>
      <point x="143" y="-71"/>
      <point x="143" y="0" type="curve" smooth="yes"/>
    </contour>
  </outline>
</glyph>
<glyph name="Rtail" format="1">
  <advance width="395"/>
  <outline>
    <contour>
      <point x="207" y="-12" type="curve" smooth="yes"/>
      <point x="229" y="-12"/>
      <point x="253" y="-6"/>
      <point x="268" y="0" type="curve"/>
      <point x="258" y="40" type="line"/>
      <point x="246" y="36"/>
      <point x="227" y="30"/>
      <point x="208" y="30" type="curve" smooth="yes"/>
      <point x="154" y="30"/>
      <point x="143" y="72"/>
      <point x="143" y="144" type="curve" smooth="yes"/>
      <point x="143" y="466" type="line"/>
      <point x="193" y="580"/>
      <point x="261" y="632"/>
      <point x="320" y="632" type="curve" smooth="yes"/>
      <point x="344" y="632"/>
      <point x="357" y="629"/>
      <point x="379" y="621" type="curve"/>
      <point x="391" y="658" type="line"/>
      <point x="370" y="669"/>
      <point x="351" y="671"/>
      <point x="328" y="671" type="curve" smooth="yes"/>
      <point x="251" y="671"/>
      <point x="188" y="614"/>
      <point x="144" y="535" type="curve"/>
      <point x="141" y="535" type="line"/>
      <point x="135" y="659" type="line"/>
      <point x="97" y="659" type="line"/>
      <point x="97" y="128" type="line" smooth="yes"/>
      <point x="97" y="33"/>
      <point x="133" y="-12"/>
    </contour>
  </outline>
</glyph>
<glyph name="Tbar" format="1">
  <advance width="524"/>
  <outline>
    <contour>
      <point x="239" y="0" type="line"/>
      <point x="285" y="0" type="line"/>
      <point x="285" y="619" type="line"/>
      <point x="495" y="619" type="line"/>
      <point x="495" y="659" type="line"/>
      <point x="29" y="659" type="line"/>
      <point x="29" y="619" type="line"/>
      <point x="239" y="619" type="line"/>
    </contour>
    <contour>
      <point x="112" y="330" type="line"/>
      <point x="412" y="330" type="line"/>
      <point x="412" y="363" type="line"/>
      <point x="198" y="363" type="line"/>
      <point x="112" y="361" type="line"/>
    </contour>
    <contour>
      <point x="262" y="679" type="move" name="aboveUC"/>
    </contour>
    <contour>
      <point x="262" y="-20" type="move" name="belowLC"/>
    </contour>
  </outline>
</glyph>
<glyph name="Thook" format="1">
  <advance width="583"/>
  <outline>
    <contour>
      <point x="298" y="0" type="line"/>
      <point x="344" y="0" type="line"/>
      <point x="344" y="619" type="line"/>
      <point x="554" y="619" type="line"/>
      <point x="554" y="659" type="line"/>
      <point x="228" y="659" type="line" smooth="yes"/>
      <point x="116" y="659"/>
      <point x="46" y="612"/>
      <point x="46" y="511" type="curve" smooth="yes"/>
      <point x="46" y="460"/>
      <point x="64" y="419"/>
      <point x="99" y="395" type="curve"/>
      <point x="122" y="426" type="line"/>
      <point x="98" y="445"/>
      <point x="86" y="472"/>
      <point x="86" y="507" type="curve" smooth="yes"/>
      <point x="86" y="588"/>
      <point x="140" y="619"/>
      <point x="221" y="619" type="curve" smooth="yes"/>
      <point x="298" y="619" type="line"/>
    </contour>
  </outline>
</glyph>
<glyph name="Thook.sc" format="1">
  <advance width="491"/>
  <outline>
    <contour>
      <point x="95" y="295" type="curve"/>
      <point x="116" y="324" type="line"/>
      <point x="95" y="338"/>
      <point x="86" y="362"/>
      <point x="86" y="393" type="curve" smooth="yes"/>
      <point x="86" y="450"/>
      <point x="123" y="473"/>
      <point x="193" y="473" type="curve" smooth="yes"/>
      <point x="294" y="473" type="line"/>
      <point x="301" y="512" type="line"/>
      <point x="189" y="512" type="line" smooth="yes"/>
      <point x="102" y="512"/>
      <point x="47" y="473"/>
      <point x="47" y="391" type="curve" smooth="yes"/>
      <point x="47" y="348"/>
      <point x="63" y="315"/>
    </contour>
    <contour>
      <point x="241" y="0" type="line"/>
      <point x="287" y="0" type="line"/>
      <point x="287" y="473" type="line"/>
      <point x="462" y="473" type="line"/>
      <point x="462" y="512" type="line"/>
      <point x="189" y="512" type="line"/>
      <point x="193" y="473" type="line"/>
      <point x="241" y="473" type="line"/>
    </contour>
    <contour>
      <point x="264" y="562" type="move" name="aboveUC"/>
    </contour>
    <contour>
      <point x="257" y="0" type="move" name="baseLC"/>
    </contour>
    <contour>
      <point x="264" y="-22" type="move" name="belowLC"/>
    </contour>
  </outline>
</glyph>
<glyph name="Tretroflex" format="1">
  <advance width="524"/>
  <outline>
    <contour>
      <point x="349" y="-12" type="curve" smooth="yes"/>
      <point x="371" y="-12"/>
      <point x="396" y="-6"/>
      <point x="410" y="0" type="curve"/>
      <point x="400" y="40" type="line"/>
      <point x="388" y="36"/>
      <point x="369" y="30"/>
      <point x="350" y="30" type="curve" smooth="yes"/>
      <point x="296" y="30"/>
      <point x="285" y="72"/>
      <point x="285" y="144" type="curve" smooth="yes"/>
      <point x="285" y="619" type="line"/>
      <point x="495" y="619" type="line"/>
      <point x="495" y="659" type="line"/>
      <point x="29" y="659" type="line"/>
      <point x="29" y="619" type="line"/>
      <point x="239" y="619" type="line"/>
      <point x="239" y="128" type="line" smooth="yes"/>
      <point x="239" y="33"/>
      <point x="275" y="-12"/>
    </contour>
  </outline>
</glyph>
<glyph name="Tturned" format="1">
  <advance width="524"/>
  <outline>
    <component base="T" xScale="-1.0" yScale="-1.0" xOffset="524" yOffset="659"/>
    <contour>
      <point x="260" y="681" type="move" name="aboveUC"/>
    </contour>
    <contour>
      <point x="262" y="0" type="move" name="baseLC"/>
    </contour>
    <contour>
      <point x="262" y="-22" type="move" name="belowLC"/>
    </contour>
  </outline>
</glyph>
<glyph name="Ubar" format="1">
  <advance width="673"/>
  <outline>
    <contour>
      <point x="36" y="334" type="line"/>
      <point x="637" y="334" type="line"/>
      <point x="637" y="367" type="line"/>
      <point x="119" y="367" type="line"/>
      <point x="36" y="363" type="line"/>
    </contour>
    <component base="U" xOffset="22"/>
  </outline>
</glyph>
<glyph name="Upsilon" format="1">
  <advance width="447"/>
  <outline>
    <component base="Y"/>
    <contour>
      <point x="223" y="679" type="move" name="aboveUC"/>
    </contour>
  </outline>
</glyph>
<glyph name="Upsilonlatin" format="1">
  <advance width="659"/>
  <outline>
    <contour>
      <point x="46" y="659" type="line"/>
      <point x="46" y="620" type="line"/>
      <point x="189" y="620" type="line"/>
      <point x="189" y="616" type="line"/>
      <point x="124" y="554"/>
      <point x="58" y="458"/>
      <point x="58" y="312" type="curve" smooth="yes"/>
      <point x="58" y="126"/>
      <point x="164" y="-12"/>
      <point x="330" y="-12" type="curve" smooth="yes"/>
      <point x="495" y="-12"/>
      <point x="601" y="126"/>
      <point x="601" y="312" type="curve" smooth="yes"/>
      <point x="601" y="458"/>
      <point x="535" y="554"/>
      <point x="470" y="616" type="curve"/>
      <point x="470" y="620" type="line"/>
      <point x="613" y="620" type="line"/>
      <point x="613" y="659" type="line"/>
      <point x="400" y="659" type="line"/>
      <point x="400" y="625" type="line"/>
      <point x="480" y="568"/>
      <point x="553" y="470"/>
      <point x="553" y="312" type="curve" smooth="yes"/>
      <point x="553" y="152"/>
      <point x="471" y="30"/>
      <point x="330" y="30" type="curve" smooth="yes"/>
      <point x="189" y="30"/>
      <point x="106" y="152"/>
      <point x="106" y="312" type="curve" smooth="yes"/>
      <point x="106" y="470"/>
      <point x="179" y="568"/>
      <point x="259" y="625" type="curve"/>
      <point x="259" y="659" type="line"/>
    </contour>
  </outline>
</glyph>
<glyph name="Upsilonlatin.sc" format="1">
  <advance width="569"/>
  <outline>
    <contour>
      <point x="44" y="512" type="line"/>
      <point x="44" y="475" type="line"/>
      <point x="163" y="475" type="line"/>
      <point x="163" y="472" type="line"/>
      <point x="110" y="425"/>
      <point x="54" y="353"/>
      <point x="54" y="242" type="curve" smooth="yes"/>
      <point x="54" y="99"/>
      <point x="144" y="-12"/>
      <point x="284" y="-12" type="curve" smooth="yes"/>
      <point x="425" y="-12"/>
      <point x="516" y="99"/>
      <point x="516" y="242" type="curve" smooth="yes"/>
      <point x="516" y="353"/>
      <point x="460" y="425"/>
      <point x="407" y="472" type="curve"/>
      <point x="407" y="475" type="line"/>
      <point x="526" y="475" type="line"/>
      <point x="526" y="512" type="line"/>
      <point x="342" y="512" type="line"/>
      <point x="342" y="480" type="line"/>
      <point x="409" y="435"/>
      <point x="469" y="361"/>
      <point x="469" y="243" type="curve" smooth="yes"/>
      <point x="469" y="123"/>
      <point x="401" y="27"/>
      <point x="284" y="27" type="curve" smooth="yes"/>
      <point x="169" y="27"/>
      <point x="101" y="123"/>
      <point x="101" y="243" type="curve" smooth="yes"/>
      <point x="101" y="361"/>
      <point x="160" y="435"/>
      <point x="227" y="480" type="curve"/>
      <point x="227" y="512" type="line"/>
    </contour>
  </outline>
</glyph>
<glyph name="Vhook" format="1">
  <advance width="625"/>
  <outline>
    <contour>
      <point x="312" y="-12" type="curve" smooth="yes"/>
      <point x="481" y="-12"/>
      <point x="570" y="161"/>
      <point x="570" y="382" type="curve" smooth="yes"/>
      <point x="570" y="578"/>
      <point x="509" y="671"/>
      <point x="402" y="671" type="curve" smooth="yes"/>
      <point x="378" y="671"/>
      <point x="358" y="668"/>
      <point x="337" y="660" type="curve"/>
      <point x="351" y="619" type="line"/>
      <point x="368" y="626"/>
      <point x="382" y="629"/>
      <point x="397" y="629" type="curve" smooth="yes"/>
      <point x="482" y="629"/>
      <point x="521" y="539"/>
      <point x="521" y="374" type="curve" smooth="yes"/>
      <point x="521" y="178"/>
      <point x="451" y="30"/>
      <point x="313" y="30" type="curve" smooth="yes"/>
      <point x="219" y="30"/>
      <point x="141" y="97"/>
      <point x="141" y="277" type="curve" smooth="yes"/>
      <point x="141" y="659" type="line"/>
      <point x="97" y="659" type="line"/>
      <point x="97" y="267" type="line" smooth="yes"/>
      <point x="97" y="67"/>
      <point x="194" y="-12"/>
    </contour>
  </outline>
</glyph>
<glyph name="Whook" format="1">
  <advance width="832"/>
  <outline>
    <contour>
      <point x="178" y="0" type="line"/>
      <point x="228" y="0" type="line"/>
      <point x="346" y="452" type="line"/>
      <point x="358" y="504"/>
      <point x="372" y="549"/>
      <point x="383" y="601" type="curve"/>
      <point x="387" y="601" type="line"/>
      <point x="398" y="549"/>
      <point x="410" y="504"/>
      <point x="422" y="452" type="curve"/>
      <point x="542" y="0" type="line"/>
      <point x="593" y="0" type="line"/>
      <point x="716" y="547" type="line" smooth="yes"/>
      <point x="726" y="595"/>
      <point x="745" y="629"/>
      <point x="782" y="629" type="curve" smooth="yes"/>
      <point x="809" y="629"/>
      <point x="823" y="613"/>
      <point x="837" y="597" type="curve"/>
      <point x="864" y="623" type="line"/>
      <point x="845" y="648"/>
      <point x="818" y="671"/>
      <point x="777" y="671" type="curve" smooth="yes"/>
      <point x="730" y="671"/>
      <point x="691" y="636"/>
      <point x="675" y="562" type="curve" smooth="yes"/>
      <point x="612" y="271" type="line"/>
      <point x="597" y="199"/>
      <point x="584" y="128"/>
      <point x="569" y="56" type="curve"/>
      <point x="565" y="56" type="line"/>
      <point x="547" y="128"/>
      <point x="530" y="199"/>
      <point x="512" y="271" type="curve"/>
      <point x="409" y="659" type="line"/>
      <point x="362" y="659" type="line"/>
      <point x="259" y="271" type="line"/>
      <point x="241" y="199"/>
      <point x="224" y="127"/>
      <point x="208" y="56" type="curve"/>
      <point x="204" y="56" type="line"/>
      <point x="189" y="127"/>
      <point x="174" y="199"/>
      <point x="159" y="271" type="curve"/>
      <point x="76" y="659" type="line"/>
      <point x="28" y="659" type="line"/>
    </contour>
  </outline>
</glyph>
<glyph name="Yhook" format="1">
  <advance width="513"/>
  <outline>
    <contour>
      <point x="200" y="0" type="line"/>
      <point x="246" y="0" type="line"/>
      <point x="246" y="267" type="line"/>
      <point x="394" y="560" type="line" smooth="yes"/>
      <point x="408" y="589"/>
      <point x="426" y="629"/>
      <point x="463" y="629" type="curve" smooth="yes"/>
      <point x="490" y="629"/>
      <point x="504" y="613"/>
      <point x="517" y="597" type="curve"/>
      <point x="545" y="623" type="line"/>
      <point x="526" y="648"/>
      <point x="499" y="671"/>
      <point x="458" y="671" type="curve" smooth="yes"/>
      <point x="411" y="671"/>
      <point x="382" y="626"/>
      <point x="360" y="580" type="curve" smooth="yes"/>
      <point x="226" y="311" type="line"/>
      <point x="222" y="311" type="line"/>
      <point x="196" y="359"/>
      <point x="175" y="405"/>
      <point x="152" y="453" type="curve"/>
      <point x="52" y="659" type="line"/>
      <point x="3" y="659" type="line"/>
      <point x="200" y="267" type="line"/>
    </contour>
  </outline>
</glyph>
<glyph name="adieresis.a" format="1">
  <advance width="544"/>
  <outline>
    <component base="dieresiscmb" xOffset="273"/>
    <contour>
      <point x="284" y="0" type="move" name="ogonekLC"/>
    </contour>
  </outline>
</glyph>
<glyph name="alphalatin" format="1">
  <advance width="544"/>
  <outline>
    <contour>
      <point x="251" y="-12" type="curve" smooth="yes"/>
      <point x="315" y="-12"/>
      <point x="369" y="23"/>
      <point x="408" y="63" type="curve"/>
      <point x="410" y="63" type="line"/>
      <point x="412" y="59"/>
      <point x="416" y="46"/>
      <point x="421" y="46" type="curve" smooth="yes"/>
      <point x="424" y="4"/>
      <point x="442" y="-12"/>
      <point x="471" y="-11" type="curve"/>
      <point x="482" y="-11"/>
      <point x="487" y="4"/>
      <point x="495" y="6" type="curve"/>
      <point x="494" y="5"/>
      <point x="488" y="29"/>
      <point x="488" y="29" type="curve" smooth="yes"/>
      <point x="478" y="27"/>
      <point x="473" y="28"/>
      <point x="470" y="30" type="curve" smooth="yes"/>
      <point x="459" y="30"/>
      <point x="452" y="73"/>
      <point x="452" y="91" type="curve"/>
      <point x="438" y="480" type="line"/>
      <point x="412" y="475" type="line"/>
      <point x="410" y="434" type="line"/>
      <point x="406" y="438"/>
      <point x="400" y="440"/>
      <point x="395" y="440" type="curve" smooth="yes"/>
      <point x="344" y="472"/>
      <point x="297" y="482"/>
      <point x="245" y="466" type="curve" smooth="yes"/>
      <point x="140" y="450"/>
      <point x="60" y="352"/>
    </contour>
    <contour>
      <point x="257" y="27" type="curve" smooth="yes"/>
      <point x="155" y="27"/>
      <point x="99" y="112"/>
      <point x="99" y="239" type="curve" smooth="yes"/>
      <point x="99" y="360"/>
      <point x="172" y="453"/>
      <point x="268" y="453" type="curve" smooth="yes"/>
      <point x="315" y="453"/>
      <point x="357" y="436"/>
      <point x="408" y="391" type="curve"/>
      <point x="408" y="106" type="line"/>
      <point x="357" y="55"/>
      <point x="310" y="27"/>
    </contour>
    <contour>
      <point x="272" y="504" type="move" name="aboveLC"/>
    </contour>
    <contour>
      <point x="272" y="0" type="move" name="baseLC"/>
    </contour>
    <contour>
      <point x="272" y="-22" type="move" name="belowLC"/>
    </contour>
  </outline>
</glyph>
<glyph name="aring" format="1">
  <advance width="491"/>
  <outline>
    <component base="a"/>
    <component base="ringcmb" xOffset="263"/>
    <contour>
      <point x="401" y="0" type="move" name="ogonekLC"/>
    </contour>
  </outline>
</glyph>
<glyph name="arrowupright" format="1">
  <advance width="620"/>
  <outline>
    <contour>
      <point x="102" y="70" type="line"/>
      <point x="129" y="43" type="line"/>
      <point x="473" y="387" type="line"/>
      <point x="465" y="68" type="line"/>
      <point x="503" y="67" type="line"/>
      <point x="506" y="444" type="line"/>
      <point x="503" y="447" type="line"/>
      <point x="126" y="444" type="line"/>
      <point x="127" y="406" type="line"/>
      <point x="445" y="414" type="line"/>
    </contour>
  </outline>
</glyph>
<glyph name="betalatin" format="1">
  <advance width="544"/>
  <outline>
    <contour>
      <point x="133" y="-180" type="line"/>
      <point x="133" y="492" type="line" smooth="yes"/>
      <point x="133" y="627"/>
      <point x="187" y="693"/>
      <point x="271" y="693" type="curve" smooth="yes"/>
      <point x="334" y="693"/>
      <point x="388" y="649"/>
      <point x="388" y="562" type="curve" smooth="yes"/>
      <point x="388" y="492"/>
      <point x="329" y="388"/>
      <point x="204" y="388" type="curve" smooth="yes"/>
      <point x="186" y="388" type="line"/>
      <point x="186" y="351" type="line"/>
      <point x="288" y="351" type="line" smooth="yes"/>
      <point x="397" y="351"/>
      <point x="450" y="283"/>
      <point x="450" y="191" type="curve" smooth="yes"/>
      <point x="450" y="92"/>
      <point x="379" y="27"/>
      <point x="308" y="27" type="curve" smooth="yes"/>
      <point x="251" y="27"/>
      <point x="213" y="48"/>
      <point x="179" y="81" type="curve"/>
      <point x="162" y="47" type="line"/>
      <point x="204" y="11"/>
      <point x="243" y="-12"/>
      <point x="313" y="-12" type="curve" smooth="yes"/>
      <point x="404" y="-12"/>
      <point x="496" y="66"/>
      <point x="496" y="189" type="curve" smooth="yes"/>
      <point x="496" y="296"/>
      <point x="436" y="371"/>
      <point x="328" y="383" type="curve"/>
      <point x="328" y="387" type="line"/>
      <point x="394" y="428"/>
      <point x="433" y="489"/>
      <point x="433" y="564" type="curve" smooth="yes"/>
      <point x="433" y="675"/>
      <point x="355" y="731"/>
      <point x="270" y="731" type="curve" smooth="yes"/>
      <point x="148" y="731"/>
      <point x="89" y="636"/>
      <point x="89" y="506" type="curve" smooth="yes"/>
      <point x="89" y="-180" type="line"/>
    </contour>
  </outline>
</glyph>
<glyph name="brevecmb.cyr" format="1">
  <outline>
    <contour>
      <point x="0" y="572" type="curve" smooth="yes"/>
      <point x="111" y="572"/>
      <point x="143" y="654"/>
      <point x="147" y="718" type="curve"/>
      <point x="107" y="718" type="line"/>
      <point x="105" y="661"/>
      <point x="80" y="603"/>
      <point x="0" y="603" type="curve" smooth="yes"/>
      <point x="-80" y="603"/>
      <point x="-105" y="661"/>
      <point x="-107" y="718" type="curve"/>
      <point x="-147" y="718" type="line"/>
      <point x="-143" y="654"/>
      <point x="-111" y="572"/>
    </contour>
    <contour>
      <point x="0" y="502" type="move" name="_aboveLC"/>
    </contour>
    <contour>
      <point x="0" y="502" type="move" name="aboveLC"/>
    </contour>
  </outline>
</glyph>
<glyph name="chilatin" format="1">
  <advance width="501"/>
  <outline>
    <contour>
      <point x="344" y="-85" type="curve" smooth="yes"/>
      <point x="253" y="162" type="line"/>
      <point x="224" y="130" type="line"/>
      <point x="301" y="-87" type="line" smooth="yes"/>
      <point x="338" y="-190"/>
      <point x="365" y="-217"/>
      <point x="409" y="-217" type="curve" smooth="yes"/>
      <point x="434" y="-217"/>
      <point x="455" y="-210"/>
      <point x="473" y="-198" type="curve"/>
      <point x="457" y="-164" type="line"/>
      <point x="443" y="-174"/>
      <point x="428" y="-178"/>
      <point x="412" y="-178" type="curve" smooth="yes"/>
      <point x="385" y="-178"/>
      <point x="367" y="-148"/>
    </contour>
    <contour>
      <point x="67" y="-217" type="line"/>
      <point x="227" y="110" type="line"/>
      <point x="237" y="110" type="line"/>
      <point x="256" y="150" type="line"/>
      <point x="424" y="480" type="line"/>
      <point x="375" y="480" type="line"/>
      <point x="236" y="192" type="line"/>
      <point x="225" y="192" type="line"/>
      <point x="207" y="150" type="line"/>
      <point x="17" y="-217" type="line"/>
    </contour>
    <contour>
      <point x="127" y="360" type="curve" smooth="yes"/>
      <point x="212" y="126" type="line"/>
      <point x="242" y="159" type="line"/>
      <point x="170" y="362" type="line" smooth="yes"/>
      <point x="133" y="465"/>
      <point x="107" y="492"/>
      <point x="62" y="492" type="curve" smooth="yes"/>
      <point x="37" y="492"/>
      <point x="16" y="485"/>
      <point x="-2" y="472" type="curve"/>
      <point x="14" y="439" type="line"/>
      <point x="28" y="449"/>
      <point x="43" y="453"/>
      <point x="59" y="453" type="curve" smooth="yes"/>
      <point x="87" y="453"/>
      <point x="104" y="423"/>
    </contour>
  </outline>
</glyph>
<glyph name="chook" format="1">
  <advance width="449"/>
  <outline>
    <contour>
      <point x="371" y="433" type="curve"/>
      <point x="412" y="433" type="line"/>
      <point x="383" y="474"/>
      <point x="378" y="498"/>
      <point x="378" y="534" type="curve" smooth="yes"/>
      <point x="378" y="562"/>
      <point x="397" y="587"/>
      <point x="434" y="587" type="curve" smooth="yes"/>
      <point x="449" y="587"/>
      <point x="460" y="581"/>
      <point x="470" y="577" type="curve"/>
      <point x="481" y="613" type="line"/>
      <point x="467" y="619"/>
      <point x="451" y="625"/>
      <point x="432" y="625" type="curve" smooth="yes"/>
      <point x="379" y="625"/>
      <point x="338" y="594"/>
      <point x="338" y="540" type="curve" smooth="yes"/>
      <point x="338" y="502"/>
      <point x="343" y="476"/>
    </contour>
    <component base="c"/>
  </outline>
</glyph>
<glyph name="circumflexacutecmb.cap" format="1">
  <outline>
    <contour>
      <point x="-96" y="707" type="line"/>
      <point x="-2" y="775" type="line"/>
      <point x="2" y="775" type="line"/>
      <point x="96" y="707" type="line"/>
      <point x="115" y="726" type="line"/>
      <point x="20" y="810" type="line"/>
      <point x="-20" y="810" type="line"/>
      <point x="-115" y="726" type="line"/>
    </contour>
    <contour>
      <point x="103" y="765" type="line"/>
      <point x="203" y="857" type="line"/>
      <point x="176" y="884" type="line"/>
      <point x="82" y="787" type="line"/>
    </contour>
    <contour>
      <point x="0" y="679" type="move" name="_aboveUC"/>
    </contour>
  </outline>
</glyph>
<glyph name="circumflexbrevecmb.cap" format="1">
  <outline>
    <contour>
      <point x="-96" y="707" type="line"/>
      <point x="-2" y="775" type="line"/>
      <point x="2" y="775" type="line"/>
      <point x="96" y="707" type="line"/>
      <point x="115" y="726" type="line"/>
      <point x="20" y="809" type="line"/>
      <point x="-20" y="809" type="line"/>
      <point x="-115" y="726" type="line"/>
    </contour>
    <contour>
      <point x="0" y="836" type="curve" smooth="yes"/>
      <point x="82" y="836"/>
      <point x="121" y="881"/>
      <point x="126" y="921" type="curve"/>
      <point x="95" y="926" type="line"/>
      <point x="89" y="895"/>
      <point x="60" y="867"/>
      <point x="0" y="867" type="curve" smooth="yes"/>
      <point x="-60" y="867"/>
      <point x="-89" y="895"/>
      <point x="-95" y="926" type="curve"/>
      <point x="-126" y="921" type="line"/>
      <point x="-121" y="881"/>
      <point x="-82" y="836"/>
    </contour>
    <contour>
      <point x="0" y="679" type="move" name="_aboveUC"/>
    </contour>
  </outline>
</glyph>
<glyph name="clickalveolar" format="1">
  <advance width="313"/>
  <outline>
    <contour>
      <point x="141" y="-217" type="line"/>
      <point x="183" y="-217" type="line"/>
      <point x="183" y="719" type="line"/>
      <point x="141" y="719" type="line"/>
    </contour>
    <contour>
      <point x="6" y="306" type="line"/>
      <point x="305" y="306" type="line"/>
      <point x="305" y="339" type="line"/>
      <point x="84" y="339" type="line"/>
      <point x="6" y="335" type="line"/>
    </contour>
    <contour>
      <point x="6" y="153" type="line"/>
      <point x="305" y="153" type="line"/>
      <point x="305" y="187" type="line"/>
      <point x="84" y="187" type="line"/>
      <point x="6" y="182" type="line"/>
    </contour>
  </outline>
</glyph>
<glyph name="clickdental" format="1">
  <advance width="226"/>
  <outline>
    <contour>
      <point x="95" y="-96" type="line"/>
      <point x="131" y="-96" type="line"/>
      <point x="131" y="719" type="line"/>
      <point x="95" y="719" type="line"/>
    </contour>
  </outline>
</glyph>
<glyph name="clickretroflex" format="1">
  <advance width="255"/>
  <outline>
    <contour>
      <point x="112" y="83" type="line"/>
      <point x="143" y="83" type="line"/>
      <point x="148" y="628" type="line"/>
      <point x="149" y="719" type="line"/>
      <point x="106" y="719" type="line"/>
      <point x="107" y="628" type="line"/>
    </contour>
    <contour>
      <point x="128" y="-108" type="curve" smooth="yes"/>
      <point x="148" y="-108"/>
      <point x="168" y="-91"/>
      <point x="168" y="-65" type="curve" smooth="yes"/>
      <point x="168" y="-37"/>
      <point x="148" y="-21"/>
      <point x="128" y="-21" type="curve" smooth="yes"/>
      <point x="107" y="-21"/>
      <point x="87" y="-37"/>
      <point x="87" y="-65" type="curve" smooth="yes"/>
      <point x="87" y="-91"/>
      <point x="107" y="-108"/>
    </contour>
  </outline>
</glyph>
<glyph name="commabelowcmb.a" format="1">
  <outline>
    <contour>
      <point x="35" y="579" type="curve"/>
      <point x="48" y="608" type="line"/>
      <point x="0" y="612"/>
      <point x="-29" y="624"/>
      <point x="-29" y="654" type="curve" smooth="yes"/>
      <point x="-29" y="684"/>
      <point x="-3" y="701"/>
      <point x="84" y="707" type="curve"/>
      <point x="77" y="737" type="line"/>
      <point x="-17" y="731"/>
      <point x="-68" y="704"/>
      <point x="-68" y="652" type="curve" smooth="yes"/>
      <point x="-68" y="609"/>
      <point x="-41" y="590"/>
    </contour>
    <contour>
      <point x="0" y="502" type="move" name="_aboveLC"/>
    </contour>
  </outline>
</glyph>
<glyph name="dezh" format="1">
  <advance width="855"/>
  <outline>
    <contour>
      <point x="434" y="442" type="line"/>
      <point x="534" y="442" type="line"/>
      <point x="534" y="480" type="line"/>
      <point x="434" y="480" type="line"/>
    </contour>
    <component base="ezh" xOffset="451"/>
    <component base="d"/>
    <contour>
      <point x="426" y="730" type="move" name="aboveUC"/>
    </contour>
    <contour>
      <point x="311" y="-20" type="move" name="belowLC"/>
    </contour>
  </outline>
</glyph>
<glyph name="dieresisgravecmb.cap" format="1">
  <outline>
    <contour>
      <point x="-98" y="725" type="curve" smooth="yes"/>
      <point x="-78" y="725"/>
      <point x="-62" y="738"/>
      <point x="-62" y="760" type="curve" smooth="yes"/>
      <point x="-62" y="782"/>
      <point x="-78" y="796"/>
      <point x="-98" y="796" type="curve" smooth="yes"/>
      <point x="-118" y="796"/>
      <point x="-133" y="782"/>
      <point x="-133" y="760" type="curve" smooth="yes"/>
      <point x="-133" y="738"/>
      <point x="-118" y="725"/>
    </contour>
    <contour>
      <point x="6" y="822" type="line"/>
      <point x="28" y="839" type="line"/>
      <point x="-66" y="945" type="line"/>
      <point x="-97" y="920" type="line"/>
    </contour>
    <contour>
      <point x="98" y="725" type="curve" smooth="yes"/>
      <point x="118" y="725"/>
      <point x="133" y="738"/>
      <point x="133" y="760" type="curve" smooth="yes"/>
      <point x="133" y="782"/>
      <point x="118" y="796"/>
      <point x="98" y="796" type="curve" smooth="yes"/>
      <point x="78" y="796"/>
      <point x="62" y="782"/>
      <point x="62" y="760" type="curve" smooth="yes"/>
      <point x="62" y="738"/>
      <point x="78" y="725"/>
    </contour>
    <contour>
      <point x="0" y="679" type="move" name="_aboveUC"/>
    </contour>
  </outline>
</glyph>
<glyph name="dotlessi" format="1">
  <advance width="229"/>
  <outline>
    <contour>
      <point x="92" y="0" type="line"/>
      <point x="136" y="0" type="line"/>
      <point x="136" y="480" type="line"/>
      <point x="92" y="480" type="line"/>
    </contour>
    <contour>
      <point x="136" y="0" type="move" name="ogonekLC"/>
    </contour>
    <contour>
      <point x="115" y="502" type="move" name="aboveLC"/>
    </contour>
    <contour>
      <point x="114" y="0" type="move" name="baseLC"/>
    </contour>
    <contour>
      <point x="113" y="-20" type="move" name="belowLC"/>
    </contour>
  </outline>
</glyph>
<glyph name="dotlessjstroke" format="1">
  <advance width="241"/>
  <outline>
    <contour>
      <point x="5" y="236" type="line"/>
      <point x="232" y="236" type="line"/>
      <point x="232" y="269" type="line"/>
      <point x="99" y="269" type="line"/>
      <point x="5" y="265" type="line"/>
    </contour>
    <component base="dotlessj" xOffset="6"/>
    <contour>
      <point x="121" y="502" type="move" name="aboveLC"/>
    </contour>
    <contour>
      <point x="121" y="-20" type="move" name="belowLC"/>
    </contour>
  </outline>
</glyph>
<glyph name="dotlessjstrokehook" format="1">
  <advance width="241"/>
  <outline>
    <contour>
      <point x="5" y="236" type="line"/>
      <point x="232" y="236" type="line"/>
      <point x="232" y="269" type="line"/>
      <point x="99" y="269" type="line"/>
      <point x="5" y="265" type="line"/>
    </contour>
    <component base="esh" xOffset="6"/>
    <contour>
      <point x="121" y="730" type="move" name="aboveUC"/>
    </contour>
    <contour>
      <point x="121" y="-20" type="move" name="belowLC"/>
    </contour>
  </outline>
</glyph>
<glyph name="e" format="1">
  <advance width="483"/>
  <outline>
    <contour>
      <point x="274" y="-12" type="curve" smooth="yes"/>
      <point x="344" y="-12"/>
      <point x="387" y="12"/>
      <point x="425" y="35" type="curve"/>
      <point x="407" y="69" type="line"/>
      <point x="371" y="43"/>
      <point x="330" y="26"/>
      <point x="278" y="26" type="curve" smooth="yes"/>
      <point x="177" y="26"/>
      <point x="96" y="104"/>
      <point x="96" y="239" type="curve" smooth="yes"/>
      <point x="96" y="385"/>
      <point x="181" y="454"/>
      <point x="262" y="454" type="curve" smooth="yes"/>
      <point x="348" y="454"/>
      <point x="403" y="393"/>
      <point x="403" y="270" type="curve"/>
      <point x="85" y="270" type="line"/>
      <point x="85" y="234" type="line"/>
      <point x="443" y="234" type="line"/>
      <point x="445" y="246"/>
      <point x="445" y="258"/>
      <point x="445" y="270" type="curve" smooth="yes"/>
      <point x="445" y="411"/>
      <point x="375" y="492"/>
      <point x="261" y="492" type="curve" smooth="yes"/>
      <point x="154" y="492"/>
      <point x="52" y="396"/>
      <point x="52" y="239" type="curve" smooth="yes"/>
      <point x="52" y="82"/>
      <point x="151" y="-12"/>
    </contour>
    <contour>
      <point x="379" y="0" type="move" name="ogonekLC"/>
    </contour>
    <contour>
      <point x="262" y="502" type="move" name="aboveLC"/>
    </contour>
    <contour>
      <point x="252" y="0" type="move" name="baseLC"/>
    </contour>
    <contour>
      <point x="252" y="-20" type="move" name="belowLC"/>
    </contour>
  </outline>
</glyph>
<glyph name="emdash.sups" format="1">
  <advance width="561"/>
  <outline>
    <contour>
      <point x="40" y="584" type="line"/>
      <point x="522" y="584" type="line"/>
      <point x="522" y="612" type="line"/>
      <point x="40" y="612" type="line"/>
    </contour>
  </outline>
</glyph>
<glyph name="en" format="1">
  <advance width="550"/>
  <outline>
    <contour>
      <point x="92" y="0" type="line"/>
      <point x="136" y="0" type="line"/>
      <point x="136" y="232" type="line"/>
      <point x="414" y="232" type="line"/>
      <point x="414" y="0" type="line"/>
      <point x="458" y="0" type="line"/>
      <point x="458" y="480" type="line"/>
      <point x="414" y="480" type="line"/>
      <point x="414" y="272" type="line"/>
      <point x="136" y="272" type="line"/>
      <point x="136" y="480" type="line"/>
      <point x="92" y="480" type="line"/>
    </contour>
    <contour>
      <point x="275" y="502" type="move" name="aboveLC"/>
    </contour>
  </outline>
</glyph>
<glyph name="endash.sups" format="1">
  <advance width="347"/>
  <outline>
    <contour>
      <point x="40" y="584" type="line"/>
      <point x="308" y="584" type="line"/>
      <point x="308" y="612" type="line"/>
      <point x="40" y="612" type="line"/>
    </contour>
  </outline>
</glyph>
<glyph name="eopen.sups" format="1">
  <advance width="279"/>
  <outline>
    <contour>
      <point x="150" y="398" type="curve" smooth="yes"/>
      <point x="195" y="398"/>
      <point x="226" y="408"/>
      <point x="262" y="435" type="curve"/>
      <point x="245" y="462" type="line"/>
      <point x="214" y="439"/>
      <point x="188" y="428"/>
      <point x="155" y="428" type="curve" smooth="yes"/>
      <point x="101" y="428"/>
      <point x="63" y="454"/>
      <point x="63" y="494" type="curve" smooth="yes"/>
      <point x="63" y="534"/>
      <point x="98" y="557"/>
      <point x="158" y="557" type="curve" smooth="yes"/>
      <point x="200" y="557" type="line"/>
      <point x="200" y="586" type="line"/>
      <point x="167" y="586" type="line" smooth="yes"/>
      <point x="107" y="586"/>
      <point x="80" y="610"/>
      <point x="80" y="643" type="curve" smooth="yes"/>
      <point x="80" y="681"/>
      <point x="114" y="699"/>
      <point x="153" y="699" type="curve" smooth="yes"/>
      <point x="183" y="699"/>
      <point x="207" y="689"/>
      <point x="232" y="672" type="curve"/>
      <point x="248" y="697" type="line"/>
      <point x="222" y="717"/>
      <point x="191" y="730"/>
      <point x="153" y="730" type="curve" smooth="yes"/>
      <point x="94" y="730"/>
      <point x="43" y="703"/>
      <point x="43" y="647" type="curve" smooth="yes"/>
      <point x="43" y="616"/>
      <point x="63" y="588"/>
      <point x="97" y="575" type="curve"/>
      <point x="97" y="573" type="line"/>
      <point x="62" y="563"/>
      <point x="25" y="539"/>
      <point x="25" y="492" type="curve" smooth="yes"/>
      <point x="25" y="435"/>
      <point x="78" y="398"/>
    </contour>
  </outline>
</glyph>
<glyph name="eopenreversedclosed" format="1">
  <advance width="534"/>
  <outline>
    <contour>
      <point x="282" y="-12" type="curve" smooth="yes"/>
      <point x="402" y="-12"/>
      <point x="482" y="45"/>
      <point x="482" y="130" type="curve" smooth="yes"/>
      <point x="482" y="201"/>
      <point x="425" y="239"/>
      <point x="372" y="253" type="curve"/>
      <point x="372" y="257" type="line"/>
      <point x="423" y="277"/>
      <point x="454" y="319"/>
      <point x="454" y="368" type="curve" smooth="yes"/>
      <point x="454" y="450"/>
      <point x="381" y="492"/>
      <point x="287" y="492" type="curve" smooth="yes"/>
      <point x="155" y="492"/>
      <point x="52" y="406"/>
      <point x="52" y="239" type="curve" smooth="yes"/>
      <point x="52" y="74"/>
      <point x="152" y="-12"/>
    </contour>
    <contour>
      <point x="280" y="26" type="curve" smooth="yes"/>
      <point x="170" y="26"/>
      <point x="98" y="105"/>
      <point x="98" y="239" type="curve" smooth="yes"/>
      <point x="98" y="373"/>
      <point x="173" y="454"/>
      <point x="287" y="454" type="curve" smooth="yes"/>
      <point x="356" y="454"/>
      <point x="409" y="425"/>
      <point x="409" y="364" type="curve" smooth="yes"/>
      <point x="409" y="311"/>
      <point x="367" y="270"/>
      <point x="271" y="270" type="curve" smooth="yes"/>
      <point x="246" y="270" type="line"/>
      <point x="246" y="234" type="line"/>
      <point x="285" y="234" type="line" smooth="yes"/>
      <point x="381" y="234"/>
      <point x="436" y="196"/>
      <point x="436" y="132" type="curve" smooth="yes"/>
      <point x="436" y="67"/>
      <point x="376" y="26"/>
    </contour>
    <contour>
      <point x="281" y="502" type="move" name="aboveLC"/>
    </contour>
    <contour>
      <point x="262" y="-20" type="move" name="belowLC"/>
    </contour>
  </outline>
</glyph>
<glyph name="er" format="1">
  <advance width="544"/>
  <outline>
    <component base="p"/>
    <contour>
      <point x="281" y="502" type="move" name="aboveLC"/>
    </contour>
  </outline>
</glyph>
<glyph name="es" format="1">
  <advance width="449"/>
  <outline>
    <component base="c"/>
    <contour>
      <point x="269" y="502" type="move" name="aboveLC"/>
    </contour>
  </outline>
</glyph>
<glyph name="eshcurl" format="1">
  <advance width="397"/>
  <outline>
    <contour>
      <point x="304" y="-16" type="curve" smooth="yes"/>
      <point x="305" y="590" type="line" smooth="yes"/>
      <point x="305" y="651"/>
      <point x="317" y="695"/>
      <point x="379" y="695" type="curve" smooth="yes"/>
      <point x="394" y="695"/>
      <point x="409" y="689"/>
      <point x="419" y="685" type="curve"/>
      <point x="430" y="721" type="line"/>
      <point x="417" y="727"/>
      <point x="397" y="733"/>
      <point x="378" y="733" type="curve" smooth="yes"/>
      <point x="296" y="733"/>
      <point x="260" y="687"/>
      <point x="260" y="593" type="curve" smooth="yes"/>
      <point x="260" y="-17" type="line" smooth="yes"/>
      <point x="260" y="-114"/>
      <point x="201" y="-192"/>
      <point x="121" y="-192" type="curve" smooth="yes"/>
      <point x="76" y="-192"/>
      <point x="40" y="-167"/>
      <point x="40" y="-131" type="curve" smooth="yes"/>
      <point x="40" y="-106"/>
      <point x="56" y="-79"/>
      <point x="95" y="-79" type="curve" smooth="yes"/>
      <point x="151" y="-79"/>
      <point x="211" y="-144"/>
      <point x="255" y="-233" type="curve"/>
      <point x="287" y="-214" type="line"/>
      <point x="229" y="-111"/>
      <point x="172" y="-47"/>
      <point x="92" y="-47" type="curve" smooth="yes"/>
      <point x="36" y="-47"/>
      <point x="1" y="-84"/>
      <point x="1" y="-131" type="curve" smooth="yes"/>
      <point x="1" y="-186"/>
      <point x="47" y="-230"/>
      <point x="123" y="-230" type="curve" smooth="yes"/>
      <point x="222" y="-230"/>
      <point x="304" y="-139"/>
    </contour>
  </outline>
</glyph>
<glyph name="eturned" format="1">
  <advance width="483"/>
  <outline>
    <component base="schwa"/>
    <contour>
      <point x="235" y="502" type="move" name="aboveLC"/>
    </contour>
    <contour>
      <point x="233" y="-20" type="move" name="belowLC"/>
    </contour>
  </outline>
</glyph>
<glyph name="ezhcurl" format="1">
  <advance width="404"/>
  <outline>
    <contour>
      <point x="172" y="-229" type="curve" smooth="yes"/>
      <point x="288" y="-229"/>
      <point x="387" y="-139"/>
      <point x="387" y="-15" type="curve" smooth="yes"/>
      <point x="387" y="109"/>
      <point x="297" y="196"/>
      <point x="155" y="169" type="curve"/>
      <point x="367" y="457" type="line"/>
      <point x="367" y="480" type="line"/>
      <point x="47" y="480" type="line"/>
      <point x="47" y="442" type="line"/>
      <point x="310" y="442" type="line"/>
      <point x="95" y="150" type="line"/>
      <point x="119" y="119" type="line"/>
      <point x="142" y="130"/>
      <point x="156" y="138"/>
      <point x="185" y="138" type="curve" smooth="yes"/>
      <point x="287" y="138"/>
      <point x="341" y="78"/>
      <point x="341" y="-18" type="curve" smooth="yes"/>
      <point x="341" y="-114"/>
      <point x="269" y="-191"/>
      <point x="170" y="-191" type="curve" smooth="yes"/>
      <point x="115" y="-191"/>
      <point x="70" y="-166"/>
      <point x="70" y="-130" type="curve" smooth="yes"/>
      <point x="70" y="-105"/>
      <point x="90" y="-78"/>
      <point x="138" y="-78" type="curve" smooth="yes"/>
      <point x="206" y="-78"/>
      <point x="295" y="-143"/>
      <point x="334" y="-233" type="curve"/>
      <point x="370" y="-215" type="line"/>
      <point x="315" y="-111"/>
      <point x="231" y="-46"/>
      <point x="137" y="-46" type="curve" smooth="yes"/>
      <point x="72" y="-46"/>
      <point x="30" y="-83"/>
      <point x="30" y="-130" type="curve" smooth="yes"/>
      <point x="30" y="-185"/>
      <point x="84" y="-229"/>
    </contour>
    <contour>
      <point x="178" y="516" type="move" name="aboveLC"/>
    </contour>
  </outline>
</glyph>
<glyph name="glottalstopinverted" format="1">
  <advance width="399"/>
  <outline>
    <contour>
      <point x="156" y="719" type="line"/>
      <point x="156" y="391" type="line"/>
      <point x="274" y="328"/>
      <point x="331" y="268"/>
      <point x="331" y="172" type="curve" smooth="yes"/>
      <point x="331" y="86"/>
      <point x="280" y="27"/>
      <point x="187" y="27" type="curve" smooth="yes"/>
      <point x="108" y="27"/>
      <point x="61" y="66"/>
      <point x="27" y="105" type="curve"/>
      <point x="1" y="74" type="line"/>
      <point x="38" y="33"/>
      <point x="94" y="-12"/>
      <point x="187" y="-12" type="curve" smooth="yes"/>
      <point x="295" y="-12"/>
      <point x="377" y="53"/>
      <point x="377" y="173" type="curve" smooth="yes"/>
      <point x="377" y="290"/>
      <point x="303" y="354"/>
      <point x="200" y="417" type="curve"/>
      <point x="200" y="719" type="line"/>
    </contour>
  </outline>
</glyph>
<glyph name="glottalstopstroke" format="1">
  <advance width="420"/>
  <outline>
    <contour>
      <point x="167" y="0" type="line"/>
      <point x="211" y="0" type="line"/>
      <point x="211" y="295" type="line"/>
      <point x="400" y="295" type="line"/>
      <point x="400" y="328" type="line"/>
      <point x="247" y="328" type="line"/>
      <point x="331" y="384"/>
      <point x="392" y="455"/>
      <point x="392" y="547" type="curve" smooth="yes"/>
      <point x="392" y="667"/>
      <point x="309" y="731"/>
      <point x="201" y="731" type="curve" smooth="yes"/>
      <point x="108" y="731"/>
      <point x="53" y="686"/>
      <point x="15" y="645" type="curve"/>
      <point x="42" y="614" type="line"/>
      <point x="75" y="654"/>
      <point x="123" y="692"/>
      <point x="201" y="692" type="curve" smooth="yes"/>
      <point x="294" y="692"/>
      <point x="346" y="634"/>
      <point x="346" y="548" type="curve" smooth="yes"/>
      <point x="346" y="462"/>
      <point x="289" y="392"/>
      <point x="178" y="328" type="curve"/>
      <point x="81" y="328" type="line"/>
      <point x="5" y="324" type="line"/>
      <point x="5" y="295" type="line"/>
      <point x="167" y="295" type="line"/>
    </contour>
    <contour>
      <point x="210" y="730" type="move" name="aboveUC"/>
    </contour>
    <contour>
      <point x="210" y="-20" type="move" name="belowLC"/>
    </contour>
  </outline>
</glyph>
<glyph name="glottalstopstrokereversed" format="1">
  <advance width="420"/>
  <outline>
    <contour>
      <point x="209" y="0" type="line"/>
      <point x="253" y="0" type="line"/>
      <point x="253" y="295" type="line"/>
      <point x="415" y="295" type="line"/>
      <point x="415" y="328" type="line"/>
      <point x="242" y="328" type="line"/>
      <point x="131" y="392"/>
      <point x="74" y="462"/>
      <point x="74" y="548" type="curve" smooth="yes"/>
      <point x="74" y="634"/>
      <point x="130" y="692"/>
      <point x="229" y="692" type="curve" smooth="yes"/>
      <point x="302" y="692"/>
      <point x="347" y="654"/>
      <point x="378" y="614" type="curve"/>
      <point x="405" y="645" type="line"/>
      <point x="369" y="686"/>
      <point x="317" y="731"/>
      <point x="229" y="731" type="curve" smooth="yes"/>
      <point x="115" y="731"/>
      <point x="28" y="667"/>
      <point x="28" y="547" type="curve" smooth="yes"/>
      <point x="28" y="455"/>
      <point x="89" y="384"/>
      <point x="172" y="328" type="curve"/>
      <point x="96" y="328" type="line"/>
      <point x="20" y="324" type="line"/>
      <point x="20" y="295" type="line"/>
      <point x="209" y="295" type="line"/>
    </contour>
    <contour>
      <point x="210" y="730" type="move" name="aboveUC"/>
    </contour>
    <contour>
      <point x="210" y="-20" type="move" name="belowLC"/>
    </contour>
  </outline>
</glyph>
<glyph name="gsmallhook" format="1">
  <advance width="486"/>
  <outline>
    <contour>
      <point x="386" y="433" type="curve"/>
      <point x="427" y="432" type="line"/>
      <point x="399" y="473"/>
      <point x="393" y="497"/>
      <point x="393" y="534" type="curve" smooth="yes"/>
      <point x="393" y="562"/>
      <point x="412" y="587"/>
      <point x="449" y="587" type="curve" smooth="yes"/>
      <point x="464" y="587"/>
      <point x="475" y="581"/>
      <point x="486" y="577" type="curve"/>
      <point x="496" y="613" type="line"/>
      <point x="482" y="619"/>
      <point x="466" y="625"/>
      <point x="447" y="625" type="curve" smooth="yes"/>
      <point x="395" y="625"/>
      <point x="353" y="594"/>
      <point x="353" y="540" type="curve" smooth="yes"/>
      <point x="353" y="502"/>
      <point x="358" y="476"/>
    </contour>
    <contour>
      <point x="276" y="-12" type="curve" smooth="yes"/>
      <point x="345" y="-12"/>
      <point x="399" y="15"/>
      <point x="432" y="47" type="curve"/>
      <point x="432" y="242" type="line"/>
      <point x="268" y="242" type="line"/>
      <point x="268" y="205" type="line"/>
      <point x="390" y="205" type="line"/>
      <point x="390" y="66" type="line"/>
      <point x="366" y="44"/>
      <point x="325" y="26"/>
      <point x="280" y="26" type="curve" smooth="yes"/>
      <point x="169" y="26"/>
      <point x="96" y="108"/>
      <point x="96" y="243" type="curve" smooth="yes"/>
      <point x="96" y="373"/>
      <point x="175" y="454"/>
      <point x="283" y="454" type="curve" smooth="yes"/>
      <point x="338" y="454"/>
      <point x="375" y="429"/>
      <point x="401" y="402" type="curve"/>
      <point x="427" y="432" type="line"/>
      <point x="397" y="461"/>
      <point x="352" y="492"/>
      <point x="281" y="492" type="curve" smooth="yes"/>
      <point x="147" y="492"/>
      <point x="52" y="396"/>
      <point x="52" y="243" type="curve" smooth="yes"/>
      <point x="52" y="82"/>
      <point x="145" y="-12"/>
    </contour>
    <contour>
      <point x="301" y="504" type="move" name="aboveUC"/>
    </contour>
    <contour>
      <point x="294" y="-22" type="move" name="belowLC"/>
    </contour>
  </outline>
</glyph>
<glyph name="hfishhooktailturned" format="1">
  <advance width="617"/>
  <outline>
    <contour>
      <point x="578" y="-181" type="curve" smooth="yes"/>
      <point x="597" y="-181"/>
      <point x="619" y="-175"/>
      <point x="630" y="-169" type="curve"/>
      <point x="619" y="-133" type="line"/>
      <point x="609" y="-137"/>
      <point x="594" y="-142"/>
      <point x="579" y="-142" type="curve" smooth="yes"/>
      <point x="537" y="-142"/>
      <point x="525" y="-103"/>
      <point x="525" y="-44" type="curve" smooth="yes"/>
      <point x="525" y="480" type="line"/>
      <point x="480" y="480" type="line"/>
      <point x="480" y="126" type="line"/>
      <point x="422" y="56"/>
      <point x="381" y="28"/>
      <point x="323" y="28" type="curve" smooth="yes"/>
      <point x="246" y="28"/>
      <point x="214" y="76"/>
      <point x="214" y="178" type="curve" smooth="yes"/>
      <point x="214" y="321" type="line" smooth="yes"/>
      <point x="214" y="435"/>
      <point x="151" y="492"/>
      <point x="70" y="492" type="curve" smooth="yes"/>
      <point x="42" y="492"/>
      <point x="22" y="488"/>
      <point x="4" y="478" type="curve"/>
      <point x="14" y="442" type="line"/>
      <point x="31" y="452"/>
      <point x="46" y="454"/>
      <point x="69" y="454" type="curve" smooth="yes"/>
      <point x="127" y="454"/>
      <point x="170" y="403"/>
      <point x="170" y="318" type="curve"/>
      <point x="170" y="172" type="line" smooth="yes"/>
      <point x="170" y="48"/>
      <point x="216" y="-12"/>
      <point x="315" y="-12" type="curve" smooth="yes"/>
      <point x="381" y="-12"/>
      <point x="429" y="23"/>
      <point x="480" y="81" type="curve"/>
      <point x="480" y="-47" type="line" smooth="yes"/>
      <point x="480" y="-139"/>
      <point x="510" y="-181"/>
    </contour>
    <contour>
      <point x="350" y="504" type="move" name="aboveLC"/>
    </contour>
    <contour>
      <point x="368" y="-22" type="move" name="belowLC"/>
    </contour>
  </outline>
</glyph>
<glyph name="hfishhookturned" format="1">
  <advance width="617"/>
  <outline>
    <contour>
      <point x="480" y="-217" type="line"/>
      <point x="525" y="-217" type="line"/>
      <point x="525" y="480" type="line"/>
      <point x="480" y="480" type="line"/>
      <point x="480" y="126" type="line"/>
      <point x="422" y="56"/>
      <point x="381" y="28"/>
      <point x="323" y="28" type="curve" smooth="yes"/>
      <point x="246" y="28"/>
      <point x="214" y="76"/>
      <point x="214" y="178" type="curve" smooth="yes"/>
      <point x="214" y="321" type="line" smooth="yes"/>
      <point x="214" y="435"/>
      <point x="151" y="492"/>
      <point x="70" y="492" type="curve" smooth="yes"/>
      <point x="42" y="492"/>
      <point x="22" y="488"/>
      <point x="4" y="478" type="curve"/>
      <point x="14" y="442" type="line"/>
      <point x="31" y="452"/>
      <point x="46" y="454"/>
      <point x="69" y="454" type="curve" smooth="yes"/>
      <point x="127" y="454"/>
      <point x="170" y="403"/>
      <point x="170" y="318" type="curve"/>
      <point x="170" y="172" type="line" smooth="yes"/>
      <point x="170" y="48"/>
      <point x="216" y="-12"/>
      <point x="315" y="-12" type="curve" smooth="yes"/>
      <point x="381" y="-12"/>
      <point x="431" y="24"/>
      <point x="483" y="83" type="curve"/>
      <point x="480" y="-30" type="line"/>
    </contour>
    <contour>
      <point x="350" y="504" type="move" name="aboveLC"/>
    </contour>
    <contour>
      <point x="368" y="-22" type="move" name="belowLC"/>
    </contour>
  </outline>
</glyph>
<glyph name="hyphen.sups" format="1">
  <advance width="227"/>
  <outline>
    <contour>
      <point x="40" y="582" type="line"/>
      <point x="190" y="582" type="line"/>
      <point x="190" y="613" type="line"/>
      <point x="40" y="613" type="line"/>
    </contour>
  </outline>
</glyph>
<glyph name="i" format="1">
  <advance width="229"/>
  <outline>
    <component base="dotlessi"/>
    <component base="dotaccentcmb" xOffset="115"/>
    <contour>
      <point x="114" y="523" type="move" name="aboveUC"/>
    </contour>
    <contour>
      <point x="136" y="0" type="move" name="ogonekLC"/>
    </contour>
    <contour>
      <point x="114" y="0" type="move" name="baseLC"/>
    </contour>
    <contour>
      <point x="113" y="-20" type="move" name="belowLC"/>
    </contour>
  </outline>
</glyph>
<glyph name="ismall" format="1">
  <advance width="310"/>
  <outline>
    <contour>
      <point x="43" y="0" type="line"/>
      <point x="267" y="0" type="line"/>
      <point x="267" y="39" type="line"/>
      <point x="177" y="39" type="line"/>
      <point x="177" y="442" type="line"/>
      <point x="267" y="442" type="line"/>
      <point x="267" y="480" type="line"/>
      <point x="43" y="480" type="line"/>
      <point x="43" y="442" type="line"/>
      <point x="133" y="442" type="line"/>
      <point x="133" y="39" type="line"/>
      <point x="43" y="39" type="line"/>
    </contour>
    <contour>
      <point x="156" y="502" type="move" name="aboveLC"/>
    </contour>
    <contour>
      <point x="131" y="0" type="move" name="ogonekUC"/>
    </contour>
    <contour>
      <point x="156" y="-20" type="move" name="belowLC"/>
    </contour>
  </outline>
</glyph>
<glyph name="j" format="1">
  <advance width="229"/>
  <outline>
    <component base="dotlessj"/>
    <component base="dotaccentcmb" xOffset="115"/>
    <contour>
      <point x="115" y="523" type="move" name="aboveUC"/>
    </contour>
    <contour>
      <point x="114" y="-20" type="move" name="belowLC"/>
    </contour>
  </outline>
</glyph>
<glyph name="jcrossedtail" format="1">
  <advance width="239"/>
  <outline>
    <contour>
      <point x="119" y="-20" type="move" name="belowLC"/>
    </contour>
  </outline>
</glyph>
<glyph name="khook" format="1">
  <advance width="462"/>
  <outline>
    <contour>
      <point x="92" y="0" type="line"/>
      <point x="136" y="0" type="line"/>
      <point x="136" y="131" type="line"/>
      <point x="244" y="257" type="line"/>
      <point x="403" y="0" type="line"/>
      <point x="452" y="0" type="line"/>
      <point x="270" y="290" type="line"/>
      <point x="426" y="480" type="line"/>
      <point x="375" y="480" type="line"/>
      <point x="138" y="189" type="line"/>
      <point x="136" y="189" type="line"/>
      <point x="136" y="553" type="line" smooth="yes"/>
      <point x="136" y="637"/>
      <point x="168" y="693"/>
      <point x="241" y="693" type="curve" smooth="yes"/>
      <point x="259" y="693"/>
      <point x="278" y="689"/>
      <point x="298" y="679" type="curve"/>
      <point x="312" y="715" type="line"/>
      <point x="290" y="725"/>
      <point x="263" y="731"/>
      <point x="240" y="731" type="curve" smooth="yes"/>
      <point x="146" y="731"/>
      <point x="92" y="667"/>
      <point x="92" y="558" type="curve" smooth="yes"/>
    </contour>
    <contour>
      <point x="235" y="730" type="move" name="aboveLC"/>
    </contour>
    <contour>
      <point x="257" y="-22" type="move" name="belowLC"/>
    </contour>
  </outline>
</glyph>
<glyph name="kturned" format="1">
  <advance width="464"/>
  <outline>
    <contour>
      <point x="328" y="-217" type="line"/>
      <point x="371" y="-217" type="line"/>
      <point x="371" y="480" type="line"/>
      <point x="328" y="480" type="line"/>
      <point x="328" y="189" type="line"/>
      <point x="325" y="189" type="line"/>
      <point x="88" y="480" type="line"/>
      <point x="37" y="480" type="line"/>
      <point x="194" y="290" type="line"/>
      <point x="11" y="0" type="line"/>
      <point x="60" y="0" type="line"/>
      <point x="220" y="257" type="line"/>
      <point x="328" y="131" type="line"/>
    </contour>
    <contour>
      <point x="232" y="502" type="move" name="aboveLC"/>
    </contour>
    <contour>
      <point x="232" y="-20" type="move" name="belowLC"/>
    </contour>
  </outline>
</glyph>
<glyph name="l.a" format="1">
  <advance width="229"/>
  <outline>
    <contour>
      <point x="92" y="0" type="line"/>
      <point x="136" y="0" type="line"/>
      <point x="136" y="719" type="line"/>
      <point x="92" y="719" type="line"/>
    </contour>
    <contour>
      <point x="114" y="523" type="move" name="aboveUC"/>
    </contour>
    <contour>
      <point x="115" y="709" type="move" name="aboveLC"/>
    </contour>
    <contour>
      <point x="115" y="-20" type="move" name="belowLC"/>
    </contour>
  </outline>
</glyph>
<glyph name="l" format="1">
  <advance width="237"/>
  <outline>
    <contour>
      <point x="151" y="-12" type="curve" smooth="yes"/>
      <point x="165" y="-12"/>
      <point x="174" y="-10"/>
      <point x="183" y="-7" type="curve"/>
      <point x="175" y="29" type="line"/>
      <point x="165" y="27"/>
      <point x="161" y="27"/>
      <point x="157" y="27" type="curve" smooth="yes"/>
      <point x="145" y="27"/>
      <point x="136" y="37"/>
      <point x="136" y="58" type="curve" smooth="yes"/>
      <point x="136" y="719" type="line"/>
      <point x="92" y="719" type="line"/>
      <point x="92" y="64" type="line" smooth="yes"/>
      <point x="92" y="12"/>
      <point x="112" y="-12"/>
    </contour>
    <contour>
      <point x="113" y="730" type="move" name="aboveUC"/>
    </contour>
    <contour>
      <point x="118" y="36" type="move" name="center"/>
    </contour>
    <contour>
      <point x="118" y="0" type="move" name="baseLC"/>
    </contour>
    <contour>
      <point x="138" y="-20" type="move" name="belowLC"/>
    </contour>
  </outline>
</glyph>
<glyph name="lbelt" format="1">
  <advance width="258"/>
  <outline>
    <contour>
      <point x="112" y="334" type="curve" smooth="yes"/>
      <point x="257" y="334" type="line"/>
      <point x="257" y="367" type="line"/>
      <point x="105" y="367" type="line" smooth="yes"/>
      <point x="56" y="367"/>
      <point x="35" y="387"/>
      <point x="35" y="410" type="curve" smooth="yes"/>
      <point x="35" y="430"/>
      <point x="45" y="447"/>
      <point x="72" y="447" type="curve" smooth="yes"/>
      <point x="111" y="447"/>
      <point x="123" y="411"/>
      <point x="123" y="376" type="curve"/>
      <point x="147" y="367" type="line"/>
      <point x="147" y="404"/>
      <point x="139" y="480"/>
      <point x="67" y="480" type="curve" smooth="yes"/>
      <point x="25" y="480"/>
      <point x="-3" y="450"/>
      <point x="-3" y="412" type="curve" smooth="yes"/>
      <point x="-3" y="367"/>
      <point x="34" y="334"/>
    </contour>
    <component base="l" xOffset="31"/>
    <contour>
      <point x="129" y="730" type="move" name="aboveUC"/>
    </contour>
    <contour>
      <point x="129" y="-20" type="move" name="belowLC"/>
    </contour>
  </outline>
</glyph>
<glyph name="lbeltretroflex" format="1">
  <advance width="258"/>
  <outline>
    <contour>
      <point x="112" y="334" type="curve" smooth="yes"/>
      <point x="257" y="334" type="line"/>
      <point x="257" y="367" type="line"/>
      <point x="105" y="367" type="line" smooth="yes"/>
      <point x="56" y="367"/>
      <point x="35" y="387"/>
      <point x="35" y="410" type="curve" smooth="yes"/>
      <point x="35" y="430"/>
      <point x="45" y="447"/>
      <point x="72" y="447" type="curve" smooth="yes"/>
      <point x="111" y="447"/>
      <point x="123" y="411"/>
      <point x="123" y="376" type="curve"/>
      <point x="147" y="367" type="line"/>
      <point x="147" y="404"/>
      <point x="139" y="480"/>
      <point x="67" y="480" type="curve" smooth="yes"/>
      <point x="25" y="480"/>
      <point x="-3" y="450"/>
      <point x="-3" y="412" type="curve" smooth="yes"/>
      <point x="-3" y="367"/>
      <point x="34" y="334"/>
    </contour>
    <component base="lretroflex" xOffset="31"/>
  </outline>
</glyph>
<glyph name="lezh" format="1">
  <advance width="540"/>
  <outline>
    <contour>
      <point x="119" y="442" type="line"/>
      <point x="219" y="442" type="line"/>
      <point x="219" y="480" type="line"/>
      <point x="119" y="480" type="line"/>
    </contour>
    <component base="l.a"/>
    <component base="ezh" xOffset="136"/>
    <contour>
      <point x="114" y="523" type="move" name="aboveUC"/>
    </contour>
    <contour>
      <point x="115" y="-20" type="move" name="belowLC"/>
    </contour>
  </outline>
</glyph>
<glyph name="liraturkish" format="1">
  <advance width="479"/>
  <outline>
    <contour>
      <point x="130" y="-12" type="line"/>
      <point x="295" y="-15"/>
      <point x="445" y="57"/>
      <point x="445" y="218" type="curve" smooth="yes"/>
      <point x="445" y="239"/>
      <point x="443" y="253"/>
      <point x="438" y="279" type="curve"/>
      <point x="398" y="266" type="line"/>
      <point x="404" y="245"/>
      <point x="404" y="230"/>
      <point x="404" y="215" type="curve" smooth="yes"/>
      <point x="404" y="91"/>
      <point x="273" y="32"/>
      <point x="176" y="31" type="curve"/>
      <point x="176" y="308" type="line"/>
      <point x="354" y="401" type="line"/>
      <point x="350" y="435" type="line"/>
      <point x="176" y="344" type="line"/>
      <point x="176" y="426" type="line"/>
      <point x="354" y="519" type="line"/>
      <point x="350" y="553" type="line"/>
      <point x="176" y="462" type="line"/>
      <point x="176" y="639" type="line"/>
      <point x="130" y="639" type="line"/>
      <point x="130" y="440" type="line"/>
      <point x="26" y="386" type="line"/>
      <point x="30" y="352" type="line"/>
      <point x="130" y="403" type="line"/>
      <point x="130" y="321" type="line"/>
      <point x="26" y="268" type="line"/>
      <point x="30" y="234" type="line"/>
      <point x="130" y="285" type="line"/>
    </contour>
  </outline>
</glyph>
<glyph name="lmiddletilde" format="1">
  <advance width="237"/>
  <outline>
    <component base="l"/>
    <component base="tildeoverlaycmb" xOffset="118" yOffset="-205"/>
    <contour>
      <point x="113" y="730" type="move" name="aboveUC"/>
    </contour>
    <contour>
      <point x="150" y="709" type="move" name="aboveLC"/>
    </contour>
    <contour>
      <point x="138" y="-20" type="move" name="belowLC"/>
    </contour>
  </outline>
</glyph>
<glyph name="lsmall" format="1">
  <advance width="399"/>
  <outline>
    <contour>
      <point x="92" y="0" type="line"/>
      <point x="373" y="0" type="line"/>
      <point x="373" y="39" type="line"/>
      <point x="136" y="39" type="line"/>
      <point x="136" y="480" type="line"/>
      <point x="92" y="480" type="line"/>
    </contour>
    <contour>
      <point x="121" y="560" type="move" name="aboveUC"/>
    </contour>
    <contour>
      <point x="199" y="502" type="move" name="aboveLC"/>
    </contour>
    <contour>
      <point x="252" y="-20" type="move" name="belowLC"/>
    </contour>
  </outline>
</glyph>
<glyph name="macronacutecmb.cap" format="1">
  <outline>
    <contour>
      <point x="-124" y="743" type="line"/>
      <point x="124" y="743" type="line"/>
      <point x="124" y="779" type="line"/>
      <point x="-124" y="779" type="line"/>
    </contour>
    <contour>
      <point x="-11" y="823" type="line"/>
      <point x="97" y="917" type="line"/>
      <point x="71" y="945" type="line"/>
      <point x="-31" y="844" type="line"/>
    </contour>
    <contour>
      <point x="0" y="679" type="move" name="_aboveUC"/>
    </contour>
  </outline>
</glyph>
<glyph name="mturned" format="1">
  <advance width="812"/>
  <outline>
    <component base="m" xScale="-1.0" yScale="-1.0" xOffset="813" yOffset="480"/>
    <contour>
      <point x="408" y="502" type="move" name="aboveLC"/>
    </contour>
    <contour>
      <point x="417" y="-20" type="move" name="belowLC"/>
    </contour>
  </outline>
</glyph>
<glyph name="nsmall" format="1">
  <advance width="532"/>
  <outline>
    <contour>
      <point x="92" y="0" type="line"/>
      <point x="135" y="0" type="line"/>
      <point x="135" y="240" type="line" smooth="yes"/>
      <point x="135" y="293"/>
      <point x="133" y="354"/>
      <point x="130" y="418" type="curve"/>
      <point x="134" y="418" type="line"/>
      <point x="153" y="388"/>
      <point x="177" y="343"/>
      <point x="196" y="314" type="curve" smooth="yes"/>
      <point x="397" y="0" type="line"/>
      <point x="440" y="0" type="line"/>
      <point x="440" y="480" type="line"/>
      <point x="397" y="480" type="line"/>
      <point x="397" y="240" type="line" smooth="yes"/>
      <point x="397" y="188"/>
      <point x="399" y="126"/>
      <point x="402" y="63" type="curve"/>
      <point x="398" y="63" type="line"/>
      <point x="379" y="93"/>
      <point x="355" y="137"/>
      <point x="336" y="167" type="curve" smooth="yes"/>
      <point x="136" y="480" type="line"/>
      <point x="92" y="480" type="line"/>
    </contour>
    <contour>
      <point x="268" y="502" type="move" name="aboveLC"/>
    </contour>
    <contour>
      <point x="266" y="-20" type="move" name="belowLC"/>
    </contour>
  </outline>
</glyph>
<glyph name="ohorn" format="1">
  <advance width="535"/>
  <outline>
    <contour>
      <point x="390" y="445" type="line"/>
      <point x="443" y="460"/>
      <point x="501" y="494"/>
      <point x="501" y="572" type="curve" smooth="yes"/>
      <point x="501" y="596"/>
      <point x="493" y="620"/>
      <point x="481" y="642" type="curve"/>
      <point x="444" y="622" type="line"/>
      <point x="453" y="605"/>
      <point x="458" y="585"/>
      <point x="458" y="569" type="curve" smooth="yes"/>
      <point x="458" y="512"/>
      <point x="423" y="480"/>
      <point x="355" y="470" type="curve"/>
    </contour>
    <component base="o"/>
    <contour>
      <point x="267" y="502" type="move" name="aboveLC"/>
    </contour>
    <contour>
      <point x="267" y="-20" type="move" name="belowLC"/>
    </contour>
  </outline>
</glyph>
<glyph name="omegalatinclosed" format="1">
  <advance width="674"/>
  <outline>
    <contour>
      <point x="211" y="-12" type="curve" smooth="yes"/>
      <point x="264" y="-12"/>
      <point x="312" y="16"/>
      <point x="335" y="73" type="curve"/>
      <point x="339" y="73" type="line"/>
      <point x="362" y="16"/>
      <point x="411" y="-12"/>
      <point x="463" y="-12" type="curve" smooth="yes"/>
      <point x="552" y="-12"/>
      <point x="616" y="57"/>
      <point x="616" y="213" type="curve" smooth="yes"/>
      <point x="616" y="353"/>
      <point x="519" y="492"/>
      <point x="339" y="492" type="curve" smooth="yes"/>
      <point x="154" y="492"/>
      <point x="58" y="345"/>
      <point x="58" y="212" type="curve" smooth="yes"/>
      <point x="58" y="58"/>
      <point x="128" y="-12"/>
    </contour>
    <contour>
      <point x="213" y="27" type="curve" smooth="yes"/>
      <point x="152" y="27"/>
      <point x="101" y="89"/>
      <point x="101" y="208" type="curve" smooth="yes"/>
      <point x="101" y="340"/>
      <point x="192" y="454"/>
      <point x="338" y="454" type="curve" smooth="yes"/>
      <point x="482" y="454"/>
      <point x="571" y="344"/>
      <point x="571" y="215" type="curve" smooth="yes"/>
      <point x="571" y="85"/>
      <point x="524" y="27"/>
      <point x="460" y="27" type="curve" smooth="yes"/>
      <point x="411" y="27"/>
      <point x="358" y="58"/>
      <point x="358" y="165" type="curve" smooth="yes"/>
      <point x="358" y="271" type="line"/>
      <point x="314" y="271" type="line"/>
      <point x="314" y="165" type="line" smooth="yes"/>
      <point x="314" y="59"/>
      <point x="263" y="27"/>
    </contour>
    <contour>
      <point x="332" y="504" type="move" name="aboveLC"/>
    </contour>
    <contour>
      <point x="332" y="-22" type="move" name="belowLC"/>
    </contour>
  </outline>
</glyph>
<glyph name="oopen.sups" format="1">
  <advance width="302"/>
  <outline>
    <contour>
      <point x="119" y="398" type="curve" smooth="yes"/>
      <point x="206" y="398"/>
      <point x="269" y="458"/>
      <point x="269" y="565" type="curve" smooth="yes"/>
      <point x="269" y="671"/>
      <point x="198" y="731"/>
      <point x="118" y="731" type="curve" smooth="yes"/>
      <point x="74" y="731"/>
      <point x="45" y="713"/>
      <point x="23" y="696" type="curve"/>
      <point x="43" y="670" type="line"/>
      <point x="66" y="689"/>
      <point x="83" y="699"/>
      <point x="119" y="699" type="curve" smooth="yes"/>
      <point x="182" y="699"/>
      <point x="230" y="643"/>
      <point x="230" y="565" type="curve" smooth="yes"/>
      <point x="230" y="486"/>
      <point x="184" y="431"/>
      <point x="117" y="431" type="curve" smooth="yes"/>
      <point x="81" y="431"/>
      <point x="56" y="444"/>
      <point x="35" y="461" type="curve"/>
      <point x="17" y="436" type="line"/>
      <point x="41" y="416"/>
      <point x="70" y="398"/>
    </contour>
  </outline>
</glyph>
<glyph name="pe" format="1">
  <advance width="541"/>
  <outline>
    <contour>
      <point x="92" y="0" type="line"/>
      <point x="136" y="0" type="line"/>
      <point x="136" y="442" type="line"/>
      <point x="404" y="442" type="line"/>
      <point x="404" y="0" type="line"/>
      <point x="448" y="0" type="line"/>
      <point x="448" y="480" type="line"/>
      <point x="92" y="480" type="line"/>
    </contour>
    <contour>
      <point x="270" y="502" type="move" name="aboveLC"/>
    </contour>
  </outline>
</glyph>
<glyph name="qhook" format="1">
  <advance width="545"/>
  <outline>
    <contour>
      <point x="452" y="473" type="line" smooth="yes"/>
      <point x="452" y="533"/>
      <point x="468" y="577"/>
      <point x="514" y="577" type="curve" smooth="yes"/>
      <point x="529" y="577"/>
      <point x="542" y="573"/>
      <point x="552" y="569" type="curve"/>
      <point x="562" y="605" type="line"/>
      <point x="549" y="611"/>
      <point x="531" y="615"/>
      <point x="513" y="615" type="curve" smooth="yes"/>
      <point x="447" y="615"/>
      <point x="408" y="570"/>
      <point x="408" y="479" type="curve"/>
      <point x="410" y="434" type="line"/>
      <point x="362" y="471"/>
      <point x="323" y="492"/>
      <point x="265" y="492" type="curve" smooth="yes"/>
      <point x="151" y="492"/>
      <point x="52" y="394"/>
      <point x="52" y="239" type="curve" smooth="yes"/>
      <point x="52" y="77"/>
      <point x="130" y="-12"/>
      <point x="251" y="-12" type="curve" smooth="yes"/>
      <point x="314" y="-12"/>
      <point x="367" y="22"/>
      <point x="410" y="63" type="curve"/>
      <point x="408" y="-32" type="line"/>
      <point x="408" y="-217" type="line"/>
      <point x="452" y="-217" type="line"/>
    </contour>
    <contour>
      <point x="257" y="27" type="curve" smooth="yes"/>
      <point x="155" y="27"/>
      <point x="99" y="112"/>
      <point x="99" y="239" type="curve" smooth="yes"/>
      <point x="99" y="360"/>
      <point x="172" y="453"/>
      <point x="268" y="453" type="curve" smooth="yes"/>
      <point x="315" y="453"/>
      <point x="357" y="436"/>
      <point x="408" y="391" type="curve"/>
      <point x="408" y="106" type="line"/>
      <point x="357" y="55"/>
      <point x="310" y="27"/>
    </contour>
    <contour>
      <point x="269" y="504" type="move" name="aboveLC"/>
    </contour>
    <contour>
      <point x="423" y="-218" type="move" name="belowLC"/>
    </contour>
  </outline>
</glyph>
<glyph name="rfishhookreversed" format="1">
  <advance width="306"/>
  <outline>
    <contour>
      <point x="170" y="-217" type="line"/>
      <point x="214" y="-217" type="line"/>
      <point x="214" y="320" type="line" smooth="yes"/>
      <point x="214" y="435"/>
      <point x="150" y="492"/>
      <point x="66" y="492" type="curve" smooth="yes"/>
      <point x="37" y="492"/>
      <point x="15" y="488"/>
      <point x="-4" y="478" type="curve"/>
      <point x="6" y="440" type="line"/>
      <point x="25" y="450"/>
      <point x="41" y="452"/>
      <point x="65" y="452" type="curve" smooth="yes"/>
      <point x="124" y="452"/>
      <point x="170" y="401"/>
      <point x="170" y="312" type="curve" smooth="yes"/>
    </contour>
    <contour>
      <point x="114" y="504" type="move" name="aboveLC"/>
    </contour>
  </outline>
</glyph>
<glyph name="rfishhookreversedtail" format="1">
  <advance width="306"/>
  <outline>
    <contour>
      <point x="267" y="-181" type="curve" smooth="yes"/>
      <point x="286" y="-181"/>
      <point x="308" y="-175"/>
      <point x="319" y="-169" type="curve"/>
      <point x="309" y="-133" type="line"/>
      <point x="299" y="-137"/>
      <point x="284" y="-142"/>
      <point x="268" y="-142" type="curve" smooth="yes"/>
      <point x="226" y="-142"/>
      <point x="214" y="-103"/>
      <point x="214" y="-44" type="curve" smooth="yes"/>
      <point x="214" y="320" type="line" smooth="yes"/>
      <point x="214" y="435"/>
      <point x="150" y="492"/>
      <point x="66" y="492" type="curve" smooth="yes"/>
      <point x="37" y="492"/>
      <point x="15" y="488"/>
      <point x="-4" y="478" type="curve"/>
      <point x="6" y="440" type="line"/>
      <point x="25" y="450"/>
      <point x="41" y="452"/>
      <point x="65" y="452" type="curve" smooth="yes"/>
      <point x="124" y="452"/>
      <point x="170" y="401"/>
      <point x="170" y="312" type="curve" smooth="yes"/>
      <point x="170" y="-47" type="line" smooth="yes"/>
      <point x="170" y="-139"/>
      <point x="199" y="-181"/>
    </contour>
    <contour>
      <point x="114" y="504" type="move" name="aboveLC"/>
    </contour>
  </outline>
</glyph>
<glyph name="rstroke" format="1">
  <advance width="319"/>
  <outline>
    <contour>
      <point x="19" y="210" type="line"/>
      <point x="278" y="210" type="line"/>
      <point x="278" y="243" type="line"/>
      <point x="95" y="243" type="line"/>
      <point x="19" y="239" type="line"/>
    </contour>
    <component base="r" xOffset="2"/>
  </outline>
</glyph>
<glyph name="schwa" format="1">
  <advance width="483"/>
  <outline>
    <contour>
      <point x="231" y="-12" type="curve" smooth="yes"/>
      <point x="346" y="-12"/>
      <point x="431" y="84"/>
      <point x="431" y="241" type="curve" smooth="yes"/>
      <point x="431" y="401"/>
      <point x="345" y="492"/>
      <point x="227" y="492" type="curve" smooth="yes"/>
      <point x="156" y="492"/>
      <point x="108" y="469"/>
      <point x="68" y="442" type="curve"/>
      <point x="86" y="408" type="line"/>
      <point x="125" y="435"/>
      <point x="167" y="454"/>
      <point x="222" y="454" type="curve" smooth="yes"/>
      <point x="325" y="454"/>
      <point x="384" y="369"/>
      <point x="386" y="257" type="curve"/>
      <point x="40" y="257" type="line"/>
      <point x="38" y="245"/>
      <point x="38" y="231"/>
      <point x="38" y="219" type="curve" smooth="yes"/>
      <point x="38" y="69"/>
      <point x="119" y="-12"/>
    </contour>
    <contour>
      <point x="230" y="26" type="curve" smooth="yes"/>
      <point x="142" y="26"/>
      <point x="79" y="87"/>
      <point x="79" y="221" type="curve"/>
      <point x="386" y="221" type="line"/>
      <point x="377" y="100"/>
      <point x="320" y="26"/>
    </contour>
    <contour>
      <point x="233" y="0" type="move" name="ogonekLC"/>
    </contour>
    <contour>
      <point x="235" y="502" type="move" name="aboveLC"/>
    </contour>
    <contour>
      <point x="241" y="0" type="move" name="baseLC"/>
    </contour>
    <contour>
      <point x="233" y="-20" type="move" name="belowLC"/>
    </contour>
  </outline>
</glyph>
<glyph name="sha" format="1">
  <advance width="718"/>
  <outline>
    <contour>
      <point x="92" y="0" type="line"/>
      <point x="626" y="0" type="line"/>
      <point x="626" y="480" type="line"/>
      <point x="582" y="480" type="line"/>
      <point x="582" y="39" type="line"/>
      <point x="381" y="39" type="line"/>
      <point x="381" y="480" type="line"/>
      <point x="337" y="480" type="line"/>
      <point x="337" y="39" type="line"/>
      <point x="136" y="39" type="line"/>
      <point x="136" y="480" type="line"/>
      <point x="92" y="480" type="line"/>
    </contour>
    <contour>
      <point x="359" y="502" type="move" name="aboveLC"/>
    </contour>
  </outline>
</glyph>
<glyph name="tbar" format="1">
  <advance width="312"/>
  <outline>
    <contour>
      <point x="28" y="236" type="line"/>
      <point x="287" y="236" type="line"/>
      <point x="287" y="269" type="line"/>
      <point x="104" y="269" type="line"/>
      <point x="28" y="265" type="line"/>
    </contour>
    <component base="t"/>
    <contour>
      <point x="129" y="633" type="move" name="aboveLC"/>
    </contour>
    <contour>
      <point x="198" y="-20" type="move" name="belowLC"/>
    </contour>
  </outline>
</glyph>
<glyph name="te" format="1">
  <advance width="441"/>
  <outline>
    <contour>
      <point x="198" y="0" type="line"/>
      <point x="243" y="0" type="line"/>
      <point x="243" y="442" type="line"/>
      <point x="415" y="442" type="line"/>
      <point x="415" y="480" type="line"/>
      <point x="26" y="480" type="line"/>
      <point x="26" y="442" type="line"/>
      <point x="198" y="442" type="line"/>
    </contour>
    <contour>
      <point x="221" y="502" type="move" name="aboveLC"/>
    </contour>
  </outline>
</glyph>
<glyph name="thook" format="1">
  <advance width="312"/>
  <outline>
    <contour>
      <point x="130" y="470" type="line"/>
      <point x="148" y="564" type="line"/>
      <point x="148" y="620"/>
      <point x="162" y="666"/>
      <point x="205" y="666" type="curve" smooth="yes"/>
      <point x="220" y="670"/>
      <point x="233" y="668"/>
      <point x="246" y="664" type="curve" smooth="yes"/>
      <point x="247" y="664"/>
      <point x="254" y="687"/>
      <point x="255" y="687" type="curve"/>
      <point x="243" y="693"/>
      <point x="231" y="709"/>
      <point x="216" y="709" type="curve"/>
      <point x="163" y="709"/>
      <point x="126" y="674"/>
      <point x="122" y="591" type="curve" smooth="yes"/>
      <point x="108" y="591"/>
      <point x="103" y="485"/>
      <point x="103" y="475" type="curve" smooth="yes"/>
    </contour>
  </outline>
</glyph>
<glyph name="tildeacutecmb.cap" format="1">
  <outline>
    <contour>
      <point x="-11" y="823" type="line"/>
      <point x="97" y="917" type="line"/>
      <point x="71" y="945" type="line"/>
      <point x="-31" y="844" type="line"/>
    </contour>
    <contour>
      <point x="-140" y="723" type="curve"/>
      <point x="-110" y="720" type="line"/>
      <point x="-106" y="753"/>
      <point x="-96" y="774"/>
      <point x="-69" y="774" type="curve" smooth="yes"/>
      <point x="-20" y="774"/>
      <point x="1" y="714"/>
      <point x="69" y="714" type="curve" smooth="yes"/>
      <point x="123" y="714"/>
      <point x="138" y="759"/>
      <point x="140" y="798" type="curve"/>
      <point x="110" y="801" type="line"/>
      <point x="106" y="769"/>
      <point x="96" y="747"/>
      <point x="69" y="747" type="curve" smooth="yes"/>
      <point x="20" y="747"/>
      <point x="-1" y="807"/>
      <point x="-69" y="807" type="curve" smooth="yes"/>
      <point x="-123" y="807"/>
      <point x="-138" y="762"/>
    </contour>
    <contour>
      <point x="0" y="681" type="move" name="_aboveUC"/>
    </contour>
  </outline>
</glyph>
<glyph name="tildeacutecmb" format="1">
  <outline>
    <contour>
      <point x="-37" y="700" type="line"/>
      <point x="96" y="788" type="line"/>
      <point x="70" y="822" type="line"/>
      <point x="-59" y="726" type="line"/>
    </contour>
    <contour>
      <point x="-139" y="583" type="curve"/>
      <point x="-110" y="581" type="line"/>
      <point x="-103" y="626"/>
      <point x="-95" y="649"/>
      <point x="-66" y="649" type="curve" smooth="yes"/>
      <point x="-15" y="649"/>
      <point x="0" y="578"/>
      <point x="67" y="578" type="curve" smooth="yes"/>
      <point x="121" y="578"/>
      <point x="136" y="630"/>
      <point x="139" y="677" type="curve"/>
      <point x="110" y="679" type="line"/>
      <point x="103" y="635"/>
      <point x="95" y="611"/>
      <point x="66" y="611" type="curve" smooth="yes"/>
      <point x="15" y="611"/>
      <point x="0" y="682"/>
      <point x="-67" y="682" type="curve" smooth="yes"/>
      <point x="-121" y="682"/>
      <point x="-136" y="631"/>
    </contour>
    <contour>
      <point x="0" y="504" type="move" name="_aboveLC"/>
    </contour>
  </outline>
</glyph>
<glyph name="tturned" format="1">
  <advance width="312"/>
  <outline>
    <component base="t" xScale="-1.0" yScale="-1.0" xOffset="330" yOffset="480"/>
    <contour>
      <point x="156" y="502" type="move" name="aboveLC"/>
    </contour>
    <contour>
      <point x="156" y="-20" type="move" name="belowLC"/>
    </contour>
  </outline>
</glyph>
<glyph name="u" format="1">
  <advance width="529"/>
  <outline>
    <contour>
      <point x="230" y="-12" type="curve" smooth="yes"/>
      <point x="296" y="-12"/>
      <point x="346" y="25"/>
      <point x="393" y="80" type="curve"/>
      <point x="395" y="80" type="line"/>
      <point x="400" y="0" type="line"/>
      <point x="437" y="0" type="line"/>
      <point x="437" y="480" type="line"/>
      <point x="393" y="480" type="line"/>
      <point x="393" y="126" type="line"/>
      <point x="337" y="58"/>
      <point x="295" y="28"/>
      <point x="238" y="28" type="curve" smooth="yes"/>
      <point x="161" y="28"/>
      <point x="129" y="76"/>
      <point x="129" y="178" type="curve" smooth="yes"/>
      <point x="129" y="480" type="line"/>
      <point x="85" y="480" type="line"/>
      <point x="85" y="172" type="line" smooth="yes"/>
      <point x="85" y="48"/>
      <point x="131" y="-12"/>
    </contour>
    <contour>
      <point x="400" y="490" type="move" name="hornLC"/>
    </contour>
    <contour>
      <point x="266" y="502" type="move" name="aboveLC"/>
    </contour>
    <contour>
      <point x="406" y="0" type="move" name="ogonekLC"/>
    </contour>
    <contour>
      <point x="281" y="0" type="move" name="baseLC"/>
    </contour>
    <contour>
      <point x="281" y="-20" type="move" name="belowLC"/>
    </contour>
  </outline>
</glyph>
<glyph name="ubar" format="1">
  <advance width="549"/>
  <outline>
    <contour>
      <point x="5" y="259" type="line"/>
      <point x="540" y="259" type="line"/>
      <point x="540" y="292" type="line"/>
      <point x="99" y="292" type="line"/>
      <point x="5" y="288" type="line"/>
    </contour>
    <component base="u" xOffset="14"/>
    <contour>
      <point x="280" y="502" type="move" name="aboveLC"/>
    </contour>
    <contour>
      <point x="275" y="0" type="move" name="baseLC"/>
    </contour>
    <contour>
      <point x="275" y="-20" type="move" name="belowLC"/>
    </contour>
  </outline>
</glyph>
<glyph name="uhorn" format="1">
  <advance width="529"/>
  <outline>
    <contour>
      <point x="437" y="457" type="line"/>
      <point x="477" y="471"/>
      <point x="529" y="501"/>
      <point x="529" y="582" type="curve" smooth="yes"/>
      <point x="529" y="606"/>
      <point x="522" y="630"/>
      <point x="509" y="652" type="curve"/>
      <point x="472" y="632" type="line"/>
      <point x="481" y="615"/>
      <point x="486" y="595"/>
      <point x="486" y="579" type="curve" smooth="yes"/>
      <point x="486" y="519"/>
      <point x="452" y="490"/>
      <point x="400" y="480" type="curve"/>
    </contour>
    <component base="u"/>
    <contour>
      <point x="266" y="502" type="move" name="aboveLC"/>
    </contour>
    <contour>
      <point x="281" y="-20" type="move" name="belowLC"/>
    </contour>
  </outline>
</glyph>
<glyph name="wturned" format="1">
  <advance width="685"/>
  <outline>
    <component base="w" xScale="-1.0" yScale="-1.0" xOffset="685" yOffset="480"/>
    <contour>
      <point x="342" y="502" type="move" name="aboveLC"/>
    </contour>
    <contour>
      <point x="342" y="-20" type="move" name="belowLC"/>
    </contour>
  </outline>
</glyph>
<glyph name="yhook" format="1">
  <advance width="509"/>
  <outline>
    <contour>
      <point x="73" y="-219" type="curve" smooth="yes"/>
      <point x="159" y="-219"/>
      <point x="207" y="-141"/>
      <point x="234" y="-60" type="curve"/>
      <point x="411" y="443" type="line" smooth="yes"/>
      <point x="433" y="506"/>
      <point x="447" y="541"/>
      <point x="491" y="541" type="curve" smooth="yes"/>
      <point x="518" y="541"/>
      <point x="535" y="525"/>
      <point x="548" y="509" type="curve"/>
      <point x="574" y="534" type="line"/>
      <point x="554" y="560"/>
      <point x="528" y="582"/>
      <point x="487" y="582" type="curve" smooth="yes"/>
      <point x="434" y="582"/>
      <point x="402" y="549"/>
      <point x="372" y="458" type="curve" smooth="yes"/>
      <point x="276" y="178" type="line" smooth="yes"/>
      <point x="263" y="138"/>
      <point x="247" y="86"/>
      <point x="232" y="44" type="curve"/>
      <point x="228" y="44" type="line"/>
      <point x="210" y="86"/>
      <point x="191" y="138"/>
      <point x="176" y="178" type="curve" smooth="yes"/>
      <point x="60" y="480" type="line"/>
      <point x="12" y="480" type="line"/>
      <point x="209" y="-9" type="line"/>
      <point x="196" y="-51" type="line" smooth="yes"/>
      <point x="172" y="-124"/>
      <point x="132" y="-178"/>
      <point x="73" y="-178" type="curve" smooth="yes"/>
      <point x="59" y="-178"/>
      <point x="44" y="-174"/>
      <point x="34" y="-170" type="curve"/>
      <point x="24" y="-209" type="line"/>
      <point x="37" y="-215"/>
      <point x="55" y="-219"/>
    </contour>
    <contour>
      <point x="229" y="504" type="move" name="aboveLC"/>
    </contour>
    <contour>
      <point x="184" y="-242" type="move" name="belowLC"/>
    </contour>
  </outline>
</glyph>
<glyph name="z" format="1">
  <advance width="404"/>
  <outline>
    <contour>
      <point x="27" y="0" type="line"/>
      <point x="378" y="0" type="line"/>
      <point x="378" y="39" type="line"/>
      <point x="85" y="39" type="line"/>
      <point x="368" y="457" type="line"/>
      <point x="368" y="480" type="line"/>
      <point x="58" y="480" type="line"/>
      <point x="58" y="442" type="line"/>
      <point x="311" y="442" type="line"/>
      <point x="27" y="24" type="line"/>
    </contour>
    <contour>
      <point x="220" y="502" type="move" name="aboveLC"/>
    </contour>
    <contour>
      <point x="203" y="0" type="move" name="baseLC"/>
    </contour>
    <contour>
      <point x="218" y="-20" type="move" name="belowLC"/>
    </contour>
  </outline>
</glyph>
